<svg width="234" height="206" viewBox="0 0 234 206" fill="none" xmlns="http://www.w3.org/2000/svg">
<rect y="30.6987" width="214.045" height="176" rx="24" transform="rotate(-7 0 30.6987)" fill="white"/>
<path d="M28.1704 108.975C27.8726 109.012 27.6301 108.957 27.4427 108.81C27.2673 108.663 27.1613 108.44 27.1246 108.142L25.772 97.1734C25.7338 96.8637 25.7826 96.622 25.9184 96.4481C26.066 96.2728 26.2887 96.1669 26.5865 96.1303C26.8843 96.0938 27.1201 96.1434 27.294 96.2792C27.4799 96.4136 27.5919 96.6356 27.6301 96.9452L28.2072 101.626L30.4583 101.349L30.067 101.706L32.9169 95.8427C33.0229 95.6242 33.1609 95.4682 33.3307 95.3748C33.5006 95.2814 33.6778 95.2475 33.8623 95.2732C34.0453 95.287 34.2045 95.3521 34.3398 95.4685C34.4855 95.5715 34.5753 95.7116 34.6092 95.8888C34.6432 96.066 34.6079 96.2698 34.5033 96.5003L31.8396 101.815L31.0746 101.346C31.8248 101.351 32.4891 101.541 33.0675 101.918C33.6459 102.294 34.1726 102.84 34.6478 103.555L36.6409 106.629C36.7999 106.839 36.8672 107.043 36.8431 107.239C36.819 107.436 36.7368 107.603 36.5967 107.741C36.4669 107.866 36.3075 107.946 36.1184 107.981C35.9427 108.027 35.7597 108.013 35.5693 107.94C35.3803 107.878 35.2183 107.741 35.0832 107.528L33.1882 104.514C32.7829 103.875 32.3482 103.439 31.8842 103.205C31.4187 102.96 30.8703 102.877 30.239 102.954L28.3989 103.18L28.9826 107.914C29.0193 108.212 28.9706 108.454 28.8363 108.639C28.702 108.825 28.48 108.937 28.1704 108.975ZM40.1663 110.766C39.8804 110.802 39.6505 110.751 39.4766 110.615C39.3027 110.48 39.1973 110.263 39.1606 109.965L37.883 99.6035C37.8462 99.3058 37.8958 99.07 38.0315 98.8961C38.1672 98.7223 38.3721 98.6186 38.646 98.5849C38.9319 98.5498 39.1618 98.6002 39.3357 98.736C39.5096 98.8718 39.615 99.0886 39.6517 99.3864L39.8433 100.941L39.6005 100.59C39.7118 99.923 40.0238 99.3648 40.5366 98.915C41.048 98.4532 41.6848 98.1756 42.4471 98.082C43.2212 97.9869 43.9169 98.0889 44.5342 98.3879C45.1633 98.6854 45.6739 99.1487 46.0658 99.7776C46.4696 100.405 46.7295 101.189 46.8455 102.13C46.9586 103.047 46.8969 103.871 46.6605 104.601C46.4346 105.318 46.0585 105.896 45.5323 106.335C45.0047 106.763 44.3478 107.025 43.5617 107.121C42.8113 107.214 42.1328 107.104 41.526 106.791C40.9192 106.479 40.4816 106.019 40.2132 105.411L40.4276 105.385L40.9651 109.743C41.0018 110.041 40.9463 110.278 40.7987 110.453C40.6629 110.627 40.4521 110.731 40.1663 110.766ZM42.9432 105.783C43.4435 105.721 43.8635 105.549 44.2034 105.265C44.5432 104.982 44.7858 104.595 44.931 104.106C45.0762 103.617 45.1069 103.033 45.0232 102.354C44.8969 101.33 44.5752 100.583 44.0579 100.115C43.5526 99.6449 42.9248 99.456 42.1744 99.5481C41.6861 99.6081 41.266 99.7805 40.9143 100.066C40.573 100.337 40.3297 100.718 40.1845 101.207C40.0393 101.696 40.0085 102.28 40.0922 102.959C40.2171 103.972 40.5388 104.718 41.0575 105.198C41.5762 105.679 42.2048 105.874 42.9432 105.783ZM52.4153 106.034C51.8079 106.109 51.2453 106.057 50.7276 105.879C50.2218 105.699 49.807 105.424 49.4831 105.052C49.1592 104.681 48.9657 104.239 48.9026 103.727C48.8233 103.084 48.9217 102.558 49.1977 102.15C49.4842 101.728 49.9931 101.393 50.7244 101.146C51.4661 100.886 52.4801 100.677 53.7665 100.519L54.6062 100.416L54.7427 101.523L53.9209 101.624C53.0633 101.729 52.3896 101.854 51.8996 101.999C51.4097 102.144 51.07 102.331 50.8805 102.56C50.7016 102.775 50.6334 103.055 50.676 103.401C50.7318 103.853 50.9321 104.204 51.277 104.451C51.6205 104.687 52.0662 104.772 52.614 104.704C53.0547 104.65 53.4293 104.501 53.7379 104.258C54.0449 104.003 54.2717 103.685 54.4182 103.304C54.5767 102.922 54.6272 102.498 54.57 102.034L54.3166 99.9796C54.2329 99.3007 54.0298 98.83 53.7072 98.5673C53.3846 98.3047 52.8958 98.2136 52.2407 98.294C51.8596 98.3408 51.4665 98.4374 51.0614 98.5839C50.6681 98.7289 50.2651 98.9416 49.8524 99.222C49.6616 99.3421 49.4926 99.3931 49.3453 99.3749C49.1979 99.3567 49.0752 99.2932 48.9772 99.1844C48.8776 99.0636 48.8131 98.9325 48.7836 98.791C48.7645 98.6362 48.7819 98.4829 48.8357 98.3312C48.9015 98.1781 49.0252 98.0541 49.207 97.9592C49.7002 97.6448 50.1963 97.4025 50.6952 97.2324C51.1941 97.0624 51.6699 96.9495 52.1225 96.894C52.9205 96.796 53.591 96.8406 54.134 97.0278C54.6889 97.2136 55.123 97.5472 55.4363 98.0286C55.7495 98.51 55.9561 99.1556 56.056 99.9655L56.6221 104.557C56.6574 104.843 56.6138 105.078 56.4914 105.262C56.3676 105.434 56.1687 105.537 55.8948 105.571C55.6327 105.603 55.4148 105.551 55.2408 105.415C55.0654 105.268 54.9601 105.051 54.9249 104.765L54.7817 103.604L54.9425 103.584C54.9015 104.037 54.7699 104.44 54.5475 104.793C54.3355 105.134 54.0493 105.411 53.6887 105.624C53.3281 105.838 52.9037 105.974 52.4153 106.034ZM63.2747 104.701C62.3814 104.811 61.5845 104.721 60.8838 104.432C60.1937 104.13 59.6281 103.662 59.1871 103.027C58.7446 102.38 58.466 101.592 58.3515 100.663C58.2663 99.9722 58.2912 99.3404 58.4261 98.7677C58.5596 98.1831 58.7874 97.6776 59.1096 97.2511C59.4438 96.8232 59.8664 96.4751 60.3774 96.2068C60.8988 95.9252 61.493 95.7434 62.16 95.6615C62.5769 95.6103 63.0197 95.6224 63.4885 95.6979C63.9677 95.7599 64.4214 95.9098 64.8497 96.1473C65.0163 96.2236 65.1263 96.331 65.1796 96.4695C65.2434 96.5947 65.2663 96.7309 65.2482 96.8782C65.242 97.0241 65.1919 97.1572 65.0979 97.2775C65.0144 97.3845 64.9026 97.4587 64.7626 97.5C64.6211 97.5295 64.4612 97.5068 64.2827 97.432C63.9719 97.2647 63.6624 97.1576 63.3544 97.1108C63.0449 97.052 62.7531 97.0395 62.4792 97.0731C62.0504 97.1258 61.6781 97.244 61.3622 97.4279C61.0568 97.5984 60.8071 97.8285 60.6131 98.1183C60.4176 98.3962 60.2838 98.7331 60.2117 99.1288C60.1515 99.5231 60.1515 99.9644 60.2117 100.453C60.3322 101.429 60.6532 102.17 61.1748 102.674C61.7069 103.165 62.3957 103.358 63.2414 103.254C63.5153 103.221 63.796 103.144 64.0835 103.024C64.371 102.904 64.6452 102.725 64.9061 102.488C65.0611 102.372 65.2115 102.317 65.3574 102.324C65.5032 102.33 65.6245 102.381 65.7211 102.478C65.8281 102.562 65.9023 102.674 65.9438 102.814C65.9957 102.94 66.0066 103.078 65.9766 103.227C65.9466 103.376 65.86 103.507 65.7169 103.621C65.3696 103.942 64.9769 104.19 64.539 104.364C64.113 104.538 63.6916 104.65 63.2747 104.701ZM68.8 103.986C68.6214 104.008 68.4621 103.992 68.3223 103.936C68.1959 103.891 68.0881 103.802 67.999 103.668C67.9218 103.532 67.8693 103.351 67.8414 103.125L66.9624 95.9967C66.9272 95.7109 66.9722 95.4878 67.0975 95.3273C67.2214 95.1549 67.4143 95.0526 67.6763 95.0205C67.9384 94.9883 68.1504 95.0408 68.3124 95.1781C68.473 95.3035 68.5709 95.5091 68.6061 95.7949L69.3683 101.976L68.9038 102.033L72.948 94.9716C73.048 94.8022 73.1681 94.6484 73.3082 94.5103C73.4484 94.3722 73.6495 94.2871 73.9115 94.2549C74.0902 94.2329 74.2435 94.2504 74.3714 94.3072C74.4978 94.3522 74.5996 94.4424 74.6768 94.578C74.7659 94.7122 74.8244 94.8924 74.8523 95.1187L75.7312 102.247C75.765 102.521 75.72 102.744 75.5962 102.916C75.4842 103.087 75.2972 103.189 75.0352 103.221C74.7613 103.254 74.5433 103.203 74.3813 103.065C74.2193 102.928 74.1214 102.722 74.0876 102.448L73.3254 96.2673L73.8078 96.2081L69.7479 103.29C69.6583 103.446 69.5435 103.593 69.4033 103.731C69.2751 103.868 69.074 103.953 68.8 103.986ZM79.4465 102.552C79.1487 102.589 78.9129 102.539 78.7389 102.403C78.5635 102.256 78.4582 102.039 78.423 101.753L77.5749 94.8751C77.5382 94.5773 77.5877 94.3415 77.7234 94.1677C77.8577 93.9819 78.0737 93.8708 78.3715 93.8342L81.9089 93.3999C82.6235 93.3121 83.2182 93.3298 83.6928 93.4529C84.1793 93.5745 84.5511 93.7948 84.8081 94.1139C85.0636 94.421 85.2215 94.8187 85.2817 95.307C85.3507 95.8668 85.2181 96.3606 84.884 96.7886C84.5484 97.2046 84.0753 97.4863 83.4648 97.6338L83.4361 97.4016C84.1909 97.3452 84.795 97.4886 85.2484 97.8319C85.7137 98.1738 85.9846 98.6543 86.061 99.2736C86.1535 100.024 85.947 100.654 85.4416 101.163C84.9346 101.661 84.1631 101.973 83.1268 102.1L79.4465 102.552ZM80.0894 101.294L82.8765 100.952C83.4124 100.886 83.8094 100.723 84.0673 100.461C84.3357 100.187 84.4428 99.829 84.3884 99.3883C84.3341 98.9477 84.1441 98.6325 83.8184 98.4427C83.5047 98.2516 83.0798 98.1889 82.5438 98.2547L79.7568 98.5969L80.0894 101.294ZM79.6136 97.4357L82.2398 97.1132C82.7282 97.0533 83.0894 96.894 83.3235 96.6356C83.5696 96.3757 83.6684 96.0492 83.6199 95.6562C83.57 95.2512 83.3948 94.9584 83.0944 94.7777C82.806 94.5955 82.4176 94.5343 81.9292 94.5943L79.303 94.9168L79.6136 97.4357ZM91.2875 101.262C90.68 101.336 90.1175 101.284 89.5998 101.106C89.094 100.926 88.6791 100.651 88.3553 100.28C88.0314 99.9082 87.8379 99.4665 87.7747 98.9544C87.6954 98.3113 87.7938 97.7854 88.0699 97.3767C88.3564 96.9546 88.8652 96.6201 89.5965 96.3731C90.3382 96.1128 91.3523 95.9037 92.6386 95.7457L93.4783 95.6426L93.6149 96.7502L92.793 96.8511C91.9355 96.9564 91.2617 97.0815 90.7718 97.2263C90.2818 97.3711 89.9421 97.5579 89.7527 97.7866C89.5737 98.0021 89.5055 98.2825 89.5481 98.6279C89.6039 99.0804 89.8043 99.4306 90.1492 99.6784C90.4926 99.9143 90.9383 99.9986 91.4862 99.9314C91.9269 99.8773 92.3015 99.7285 92.61 99.4851C92.9171 99.2298 93.1439 98.9118 93.2904 98.5311C93.4488 98.1489 93.4994 97.7256 93.4421 97.2611L93.1888 95.2067C93.1051 94.5278 92.9019 94.0571 92.5794 93.7944C92.2568 93.5318 91.768 93.4407 91.1129 93.5211C90.7317 93.5679 90.3386 93.6645 89.9335 93.811C89.5403 93.956 89.1373 94.1687 88.7245 94.4491C88.5338 94.5692 88.3647 94.6202 88.2174 94.602C88.0701 94.5838 87.9474 94.5203 87.8493 94.4115C87.7498 94.2907 87.6853 94.1596 87.6557 94.0181C87.6366 93.8633 87.654 93.71 87.7078 93.5583C87.7736 93.4052 87.8973 93.2812 88.0791 93.1863C88.5723 92.8719 89.0684 92.6296 89.5673 92.4595C90.0663 92.2895 90.5421 92.1766 90.9947 92.1211C91.7927 92.0231 92.4632 92.0677 93.0062 92.2549C93.5611 92.4407 93.9951 92.7743 94.3084 93.2557C94.6217 93.7371 94.8283 94.3827 94.9281 95.1926L95.4943 99.7838C95.5295 100.07 95.4859 100.305 95.3636 100.489C95.2397 100.661 95.0409 100.764 94.7669 100.798C94.5049 100.83 94.2869 100.778 94.113 100.643C93.9376 100.495 93.8322 100.278 93.797 99.9922L93.6538 98.831L93.8146 98.8113C93.7737 99.2636 93.642 99.6667 93.4196 100.02C93.2077 100.361 92.9214 100.638 92.5608 100.851C92.2003 101.065 91.7758 101.202 91.2875 101.262ZM104.536 99.5985C104.263 99.6321 104.045 99.5862 103.885 99.4609C103.723 99.3236 103.625 99.118 103.591 98.8441L103.289 96.3966L102.164 96.5348C101.747 96.586 101.403 96.737 101.131 96.988C100.86 97.2389 100.65 97.5428 100.5 97.8997L99.7582 99.6774C99.6536 99.9078 99.5164 100.07 99.3465 100.163C99.1782 100.268 99.0017 100.308 98.8172 100.283C98.6326 100.257 98.4668 100.187 98.3196 100.072C98.1725 99.9567 98.07 99.8121 98.0122 99.6379C97.9649 99.4502 97.9883 99.2479 98.0825 99.0308L98.6473 97.7282C98.7967 97.3714 99.0243 97.0593 99.3299 96.7921C99.6459 96.5115 99.9766 96.35 100.322 96.3075L100.608 96.2724L100.63 96.4511C99.6413 96.5725 98.8452 96.4405 98.2415 96.0552C97.6378 95.6699 97.2846 95.0604 97.1818 94.2267C97.1157 93.6908 97.1775 93.2117 97.3673 92.7894C97.5674 92.3538 97.8985 91.9988 98.3604 91.7244C98.8208 91.4382 99.4083 91.2512 100.123 91.1635L103.357 90.7664C103.654 90.7298 103.891 90.7854 104.066 90.9332C104.252 91.0675 104.364 91.2836 104.4 91.5813L105.27 98.6379C105.304 98.9118 105.253 99.1357 105.117 99.3095C104.98 99.4714 104.787 99.5678 104.536 99.5985ZM101.029 95.4228L103.137 95.1639L102.758 92.0912L100.65 92.3501C99.9951 92.4305 99.5296 92.6267 99.2537 92.9386C98.9763 93.2387 98.867 93.6269 98.9258 94.1033C98.986 94.5916 99.1878 94.9537 99.5313 95.1896C99.8747 95.4255 100.374 95.5032 101.029 95.4228ZM114.107 101.688C113.821 101.723 113.591 101.672 113.417 101.537C113.243 101.401 113.138 101.184 113.101 100.886L111.824 90.5247C111.787 90.227 111.837 89.9912 111.972 89.8174C112.108 89.6435 112.313 89.5398 112.587 89.5061C112.873 89.471 113.103 89.5214 113.277 89.6572C113.45 89.793 113.556 90.0098 113.592 90.3076L113.784 91.8618L113.541 91.5108C113.653 90.8442 113.965 90.286 114.477 89.8362C114.989 89.3744 115.626 89.0968 116.388 89.0032C117.162 88.9081 117.858 89.0101 118.475 89.3091C119.104 89.6066 119.615 90.0699 120.007 90.6988C120.41 91.3263 120.67 92.1104 120.786 93.0513C120.899 93.9684 120.838 94.792 120.601 95.5223C120.375 96.2391 119.999 96.8173 119.473 97.2567C118.945 97.6842 118.289 97.9462 117.503 98.0427C116.752 98.1348 116.074 98.0247 115.467 97.7123C114.86 97.4 114.422 96.9399 114.154 96.332L114.368 96.3057L114.906 100.665C114.943 100.962 114.887 101.199 114.739 101.374C114.604 101.548 114.393 101.653 114.107 101.688ZM116.884 96.7041C117.384 96.6427 117.804 96.4702 118.144 96.1867C118.484 95.9031 118.727 95.5167 118.872 95.0274C119.017 94.538 119.048 93.9539 118.964 93.2751C118.838 92.2508 118.516 91.5045 117.999 91.036C117.493 90.5661 116.866 90.3772 116.115 90.4693C115.627 90.5293 115.207 90.7018 114.855 90.9868C114.514 91.2584 114.271 91.6389 114.125 92.1282C113.98 92.6175 113.949 93.2016 114.033 93.8805C114.158 94.8928 114.48 95.6392 114.998 96.1196C115.517 96.5999 116.146 96.7948 116.884 96.7041ZM127.66 96.7955C126.708 96.9125 125.864 96.8347 125.129 96.5623C124.404 96.2764 123.81 95.8234 123.347 95.2033C122.894 94.5697 122.61 93.7885 122.496 92.8595C122.384 91.9544 122.471 91.1397 122.757 90.4155C123.042 89.6913 123.483 89.0992 124.079 88.6391C124.675 88.179 125.384 87.8985 126.206 87.7976C126.814 87.723 127.368 87.7577 127.869 87.9017C128.369 88.0338 128.81 88.2699 129.19 88.61C129.581 88.9368 129.893 89.358 130.126 89.8734C130.37 90.3874 130.534 90.9779 130.616 91.6449C130.641 91.8473 130.601 92.0095 130.495 92.1313C130.387 92.2412 130.215 92.3108 129.976 92.34L123.974 93.0771L123.837 91.9695L129.34 91.2938L129.067 91.5812C128.993 90.9857 128.842 90.4905 128.612 90.0956C128.393 89.6992 128.098 89.4151 127.727 89.2431C127.365 89.0578 126.934 88.9958 126.434 89.0572C125.874 89.126 125.414 89.3155 125.053 89.6258C124.704 89.9346 124.457 90.3336 124.312 90.823C124.167 91.3123 124.133 91.8667 124.209 92.486L124.222 92.5932C124.351 93.6412 124.693 94.4032 125.248 94.8792C125.813 95.3418 126.565 95.5154 127.506 95.3998C127.864 95.356 128.233 95.2623 128.614 95.1187C129.008 94.9737 129.369 94.7661 129.698 94.496C129.886 94.352 130.058 94.2765 130.214 94.2694C130.383 94.2608 130.52 94.2983 130.627 94.3819C130.746 94.464 130.826 94.5751 130.868 94.7151C130.909 94.8551 130.904 95.0069 130.851 95.1705C130.798 95.3222 130.689 95.4685 130.525 95.6096C130.154 95.9332 129.709 96.1994 129.19 96.4081C128.671 96.6049 128.161 96.7341 127.66 96.7955ZM139.784 95.2706C139.486 95.3071 139.25 95.2516 139.074 95.1038C138.899 94.9561 138.792 94.7274 138.754 94.4178L138.443 91.8988C138.144 92.117 137.815 92.2964 137.458 92.437C137.112 92.5761 136.737 92.6706 136.332 92.7203C135.07 92.8753 134.097 92.6864 133.415 92.1536C132.733 91.6208 132.315 90.735 132.162 89.4964L131.984 88.0494C131.947 87.7516 131.997 87.5159 132.132 87.342C132.268 87.1682 132.479 87.0637 132.765 87.0286C133.051 86.9935 133.281 87.0439 133.454 87.1797C133.64 87.314 133.752 87.5301 133.788 87.8278L133.949 89.132C134.05 89.9537 134.291 90.5287 134.67 90.857C135.061 91.1838 135.649 91.2989 136.435 91.2024C136.816 91.1556 137.151 91.0722 137.438 90.9523C137.724 90.8205 137.992 90.6425 138.243 90.4183L137.866 87.3634C137.788 86.7322 138.053 86.3793 138.66 86.3047C138.958 86.2681 139.189 86.3245 139.352 86.4736C139.526 86.6095 139.632 86.8322 139.671 87.1418L140.541 94.1984C140.579 94.5081 140.537 94.755 140.414 94.9393C140.292 95.1236 140.082 95.234 139.784 95.2706ZM144.262 94.5938C143.965 94.6303 143.729 94.5807 143.555 94.4449C143.38 94.2972 143.274 94.0804 143.239 93.7946L142.373 86.7737C142.335 86.4641 142.385 86.2283 142.522 86.0664C142.669 85.8911 142.886 85.7859 143.172 85.7508C143.458 85.7157 143.688 85.766 143.862 85.9018C144.034 86.0257 144.139 86.2425 144.178 86.5522L144.453 88.7853L146.936 88.4803C148.056 88.3429 148.938 88.4825 149.582 88.8991C150.224 89.3038 150.602 89.9647 150.715 90.8818C150.787 91.4654 150.713 91.9943 150.493 92.4686C150.272 92.931 149.92 93.3127 149.437 93.6138C148.953 93.903 148.354 94.0914 147.639 94.1792L144.262 94.5938ZM145.004 93.2514L147.255 92.975C147.874 92.899 148.34 92.7088 148.654 92.4043C148.965 92.088 149.086 91.6499 149.017 91.0902C148.95 90.5423 148.728 90.1646 148.352 89.9569C147.974 89.7373 147.475 89.6655 146.856 89.7415L144.605 90.0179L145.004 93.2514ZM156.387 88.8433C156.208 88.8653 156.053 88.8299 155.92 88.7374C155.799 88.6314 155.728 88.5011 155.709 88.3462C155.688 88.1795 155.726 88.0419 155.821 87.9335C155.927 87.8116 156.07 87.7398 156.248 87.7178L173.167 85.6405C173.334 85.62 173.477 85.6568 173.598 85.7508C173.729 85.8314 173.804 85.9551 173.825 86.1219C173.844 86.2767 173.801 86.421 173.697 86.5547C173.603 86.675 173.473 86.7455 173.306 86.7659L156.387 88.8433ZM32.2955 133.898C32.0811 133.924 31.8951 133.887 31.7375 133.785C31.5932 133.694 31.4975 133.555 31.4502 133.367C31.4162 133.19 31.4277 132.989 31.4847 132.764L32.3625 129.882L32.4572 130.65L28.1581 123.289C28.0482 123.085 27.9935 122.886 27.9938 122.693C27.9942 122.499 28.0651 122.339 28.2067 122.213C28.3469 122.075 28.548 121.99 28.81 121.958C29.0363 121.93 29.2216 121.962 29.3658 122.053C29.5101 122.144 29.6519 122.314 29.7914 122.563L33.3108 128.895L32.8106 128.956L34.7224 121.957C34.7958 121.67 34.8981 121.47 35.0293 121.357C35.159 121.233 35.3489 121.155 35.599 121.124C35.8134 121.098 35.9875 121.137 36.1213 121.241C36.2655 121.333 36.3613 121.472 36.4086 121.66C36.4664 121.834 36.4608 122.034 36.392 122.26L33.1922 133.081C33.1069 133.369 32.9927 133.571 32.8496 133.685C32.7184 133.798 32.5337 133.869 32.2955 133.898ZM43.059 129.348C42.1658 129.458 41.3688 129.369 40.6682 129.08C39.978 128.778 39.4124 128.309 38.9714 127.674C38.5289 127.027 38.2504 126.239 38.1359 125.31C38.0507 124.62 38.0755 123.988 38.2105 123.415C38.3439 122.83 38.5718 122.325 38.894 121.898C39.2281 121.471 39.6507 121.122 40.1617 120.854C40.6832 120.573 41.2774 120.391 41.9444 120.309C42.3613 120.258 42.8041 120.27 43.2728 120.345C43.752 120.407 44.2058 120.557 44.6341 120.795C44.8007 120.871 44.9106 120.978 44.964 121.117C45.0278 121.242 45.0506 121.378 45.0325 121.526C45.0263 121.671 44.9762 121.805 44.8822 121.925C44.7987 122.032 44.687 122.106 44.547 122.147C44.4055 122.177 44.2455 122.154 44.067 122.079C43.7562 121.912 43.4468 121.805 43.1387 121.758C42.8292 121.699 42.5375 121.687 42.2636 121.721C41.8348 121.773 41.4624 121.891 41.1466 122.075C40.8411 122.246 40.5914 122.476 40.3974 122.766C40.202 123.044 40.0682 123.38 39.9961 123.776C39.9359 124.17 39.9359 124.612 39.9961 125.1C40.1165 126.077 40.4375 126.817 40.9592 127.321C41.4912 127.812 42.1801 128.006 43.0257 127.902C43.2997 127.868 43.5804 127.791 43.8679 127.671C44.1554 127.551 44.4296 127.373 44.6904 127.135C44.8454 127.019 44.9959 126.965 45.1417 126.971C45.2876 126.977 45.4088 127.029 45.5054 127.126C45.6125 127.209 45.6867 127.321 45.7281 127.461C45.78 127.588 45.791 127.725 45.7609 127.874C45.7309 128.023 45.6444 128.154 45.5013 128.269C45.1539 128.589 44.7613 128.837 44.3234 129.012C43.8974 129.185 43.4759 129.297 43.059 129.348ZM48.6559 128.625C48.37 128.66 48.1342 128.61 47.9483 128.476C47.7729 128.328 47.6676 128.112 47.6324 127.826L46.7798 120.912C46.7402 120.591 46.7927 120.33 46.9374 120.131C47.0941 119.93 47.3391 119.81 47.6726 119.769L53.5326 119.049C53.8542 119.01 54.1153 119.068 54.316 119.225C54.5167 119.382 54.6369 119.621 54.6765 119.942L55.5291 126.856C55.5643 127.142 55.5088 127.378 55.3626 127.566C55.2269 127.74 55.0161 127.844 54.7302 127.879C54.4325 127.916 54.1966 127.866 54.0227 127.73C53.8592 127.581 53.7599 127.364 53.7246 127.078L52.925 120.593L48.6372 121.119L49.4368 127.604C49.4721 127.89 49.4225 128.126 49.2883 128.312C49.1644 128.484 48.9536 128.588 48.6559 128.625ZM62.4486 126.968C61.4958 127.085 60.6519 127.007 59.9171 126.734C59.1926 126.449 58.5987 125.996 58.1354 125.375C57.6824 124.742 57.3987 123.961 57.2841 123.032C57.1725 122.127 57.2595 121.312 57.545 120.588C57.8305 119.864 58.2714 119.271 58.8675 118.811C59.4637 118.351 60.1727 118.071 60.9945 117.97C61.602 117.895 62.1564 117.93 62.6578 118.074C63.1577 118.206 63.5979 118.442 63.9784 118.782C64.3693 119.109 64.6812 119.53 64.914 120.046C65.1588 120.56 65.3223 121.15 65.4045 121.817C65.4295 122.02 65.389 122.182 65.2831 122.303C65.1758 122.413 65.003 122.483 64.7648 122.512L58.7619 123.249L58.6253 122.142L64.128 121.466L63.8551 121.753C63.7817 121.158 63.6299 120.663 63.3998 120.268C63.1817 119.871 62.8867 119.587 62.5149 119.415C62.1535 119.23 61.7226 119.168 61.2224 119.229C60.6626 119.298 60.2023 119.488 59.8416 119.798C59.4928 120.107 59.2458 120.506 59.1005 120.995C58.9553 121.485 58.9209 122.039 58.9973 122.658L59.0105 122.765C59.1397 123.813 59.4816 124.575 60.036 125.051C60.6008 125.514 61.3537 125.688 62.2947 125.572C62.652 125.528 63.0213 125.434 63.4026 125.291C63.7958 125.146 64.1571 124.938 64.4865 124.668C64.6743 124.524 64.8464 124.449 65.0027 124.442C65.1709 124.433 65.3085 124.471 65.4156 124.554C65.5345 124.636 65.6147 124.747 65.6561 124.887C65.6976 125.027 65.6921 125.179 65.6398 125.343C65.5859 125.494 65.477 125.641 65.313 125.782C64.9419 126.105 64.4971 126.372 63.9787 126.58C63.4589 126.777 62.9489 126.906 62.4486 126.968ZM69.0187 125.998C68.7209 126.034 68.485 125.985 68.3111 125.849C68.1357 125.701 68.0304 125.484 67.9951 125.199L67.1294 118.178C67.0912 117.868 67.1348 117.633 67.2601 117.473C67.3958 117.299 67.6007 117.195 67.8746 117.161C68.1486 117.128 68.3666 117.18 68.5286 117.317C68.701 117.441 68.8064 117.657 68.8445 117.967L69.6464 124.47L72.9873 124.06L72.1855 117.557C72.1473 117.247 72.1908 117.012 72.3161 116.852C72.4519 116.678 72.6567 116.574 72.9307 116.541C73.2165 116.505 73.4405 116.557 73.6025 116.694C73.763 116.819 73.8624 117.037 73.9006 117.346L74.7024 123.849L78.0433 123.439L77.2415 116.936C77.2033 116.626 77.2469 116.391 77.3722 116.231C77.5079 116.057 77.7128 115.953 77.9867 115.92C78.2725 115.885 78.4965 115.936 78.6585 116.073C78.8191 116.198 78.9184 116.416 78.9566 116.726L79.8223 123.746C79.8576 124.032 79.8081 124.268 79.6738 124.454C79.538 124.628 79.3213 124.733 79.0235 124.769L69.0187 125.998ZM83.585 124.336C83.2991 124.371 83.0633 124.322 82.8774 124.187C82.702 124.04 82.5967 123.823 82.5615 123.537L81.6803 116.391C81.6421 116.081 81.6916 115.846 81.8288 115.684C81.9765 115.508 82.1933 115.403 82.4791 115.368C82.765 115.333 82.9949 115.383 83.1688 115.519C83.3412 115.643 83.4466 115.86 83.4848 116.17L83.8218 118.903L88.1632 118.37L87.8261 115.636C87.788 115.327 87.8315 115.092 87.9568 114.931C88.0926 114.757 88.3093 114.652 88.6071 114.616C88.8929 114.581 89.1228 114.631 89.2968 114.767C89.4811 114.889 89.5924 115.105 89.6306 115.415L90.5117 122.561C90.547 122.847 90.4915 123.083 90.3453 123.27C90.2096 123.444 89.9988 123.549 89.7129 123.584C89.4152 123.62 89.1793 123.571 89.0054 123.435C88.8419 123.286 88.7425 123.068 88.7073 122.782L88.3394 119.799L83.998 120.332L84.3659 123.315C84.4011 123.601 84.3516 123.837 84.2174 124.023C84.0935 124.195 83.8827 124.3 83.585 124.336ZM94.2123 122.904C93.9145 122.941 93.6787 122.891 93.5047 122.755C93.3293 122.608 93.224 122.391 93.1888 122.105L92.323 115.084C92.2848 114.775 92.3344 114.539 92.4716 114.377C92.6192 114.202 92.836 114.096 93.1218 114.061C93.4077 114.026 93.6376 114.077 93.8115 114.212C93.984 114.336 94.0893 114.553 94.1275 114.863L94.4028 117.096L96.8862 116.791C98.0058 116.653 98.8875 116.793 99.5313 117.21C100.174 117.614 100.551 118.275 100.664 119.192C100.736 119.776 100.663 120.305 100.443 120.779C100.222 121.242 99.87 121.623 99.3872 121.924C98.903 122.214 98.3035 122.402 97.5889 122.49L94.2123 122.904ZM94.9536 121.562L97.2047 121.286C97.824 121.21 98.2902 121.019 98.6033 120.715C98.915 120.399 99.0363 119.961 98.9672 119.401C98.8997 118.853 98.6778 118.475 98.3015 118.267C97.9238 118.048 97.4253 117.976 96.8059 118.052L94.5548 118.329L94.9536 121.562ZM103.107 121.939C102.821 121.974 102.591 121.924 102.417 121.788C102.242 121.64 102.137 121.424 102.101 121.138L101.22 113.992C101.182 113.682 101.232 113.446 101.369 113.285C101.505 113.111 101.715 113.006 102.001 112.971C102.287 112.936 102.517 112.986 102.691 113.122C102.875 113.245 102.986 113.461 103.025 113.77L103.906 120.916C103.981 121.524 103.714 121.865 103.107 121.939ZM107.573 121.391C107.394 121.413 107.235 121.396 107.095 121.341C106.969 121.296 106.861 121.206 106.772 121.072C106.695 120.936 106.642 120.756 106.614 120.529L105.735 113.401C105.7 113.115 105.745 112.892 105.871 112.732C105.994 112.559 106.187 112.457 106.449 112.425C106.711 112.393 106.923 112.445 107.085 112.583C107.246 112.708 107.344 112.914 107.379 113.199L108.141 119.381L107.677 119.438L111.721 112.376C111.821 112.207 111.941 112.053 112.081 111.915C112.221 111.777 112.422 111.692 112.685 111.659C112.863 111.637 113.016 111.655 113.144 111.712C113.271 111.757 113.373 111.847 113.45 111.983C113.539 112.117 113.597 112.297 113.625 112.523L114.504 119.651C114.538 119.925 114.493 120.148 114.369 120.321C114.257 120.492 114.07 120.593 113.808 120.625C113.534 120.659 113.316 120.607 113.154 120.47C112.992 120.333 112.894 120.127 112.861 119.853L112.098 113.672L112.581 113.613L108.521 120.694C108.431 120.85 108.316 120.997 108.176 121.135C108.048 121.272 107.847 121.357 107.573 121.391ZM109.455 111.059C108.776 111.142 108.143 111.056 107.555 110.802C106.978 110.534 106.531 110.094 106.213 109.48C106.117 109.286 106.085 109.127 106.118 109.002C106.161 108.864 106.257 108.755 106.404 108.677C106.553 108.61 106.691 108.599 106.817 108.644C106.944 108.689 107.066 108.801 107.185 108.98C107.439 109.372 107.74 109.655 108.088 109.83C108.448 110.003 108.86 110.062 109.325 110.004C109.789 109.947 110.169 109.792 110.464 109.538C110.771 109.283 111 108.934 111.151 108.493C111.223 108.29 111.315 108.152 111.427 108.078C111.539 108.004 111.675 107.981 111.835 108.01C111.998 108.05 112.111 108.133 112.174 108.258C112.249 108.37 112.257 108.532 112.198 108.745C111.992 109.423 111.653 109.96 111.182 110.357C110.709 110.741 110.134 110.975 109.455 111.059ZM123.342 122.719C123.056 122.754 122.826 122.704 122.652 122.568C122.479 122.432 122.373 122.215 122.336 121.918L121.059 111.556C121.022 111.258 121.072 111.022 121.207 110.849C121.343 110.675 121.548 110.571 121.822 110.537C122.108 110.502 122.338 110.553 122.512 110.689C122.686 110.824 122.791 111.041 122.828 111.339L123.019 112.893L122.776 112.542C122.888 111.876 123.2 111.317 123.713 110.867C124.224 110.406 124.861 110.128 125.623 110.034C126.397 109.939 127.093 110.041 127.71 110.34C128.339 110.638 128.85 111.101 129.242 111.73C129.645 112.358 129.905 113.142 130.021 114.083C130.134 115 130.073 115.823 129.836 116.554C129.61 117.27 129.234 117.849 128.708 118.288C128.181 118.715 127.524 118.977 126.738 119.074C125.987 119.166 125.309 119.056 124.702 118.744C124.095 118.431 123.657 117.971 123.389 117.363L123.603 117.337L124.141 121.696C124.178 121.994 124.122 122.23 123.975 122.406C123.839 122.579 123.628 122.684 123.342 122.719ZM126.119 117.735C126.619 117.674 127.039 117.501 127.379 117.218C127.719 116.934 127.962 116.548 128.107 116.059C128.252 115.569 128.283 114.985 128.199 114.306C128.073 113.282 127.751 112.536 127.234 112.067C126.729 111.597 126.101 111.408 125.35 111.501C124.862 111.561 124.442 111.733 124.09 112.018C123.749 112.29 123.506 112.67 123.36 113.159C123.215 113.649 123.184 114.233 123.268 114.912C123.393 115.924 123.715 116.67 124.233 117.151C124.752 117.631 125.381 117.826 126.119 117.735ZM136.895 117.827C135.943 117.944 135.099 117.866 134.364 117.594C133.639 117.308 133.046 116.855 132.582 116.235C132.129 115.601 131.845 114.82 131.731 113.891C131.619 112.986 131.706 112.171 131.992 111.447C132.277 110.723 132.718 110.13 133.314 109.67C133.91 109.21 134.619 108.93 135.441 108.829C136.049 108.754 136.603 108.789 137.105 108.933C137.604 109.065 138.045 109.301 138.425 109.641C138.816 109.968 139.128 110.389 139.361 110.905C139.606 111.419 139.769 112.009 139.851 112.676C139.876 112.879 139.836 113.041 139.73 113.163C139.623 113.272 139.45 113.342 139.212 113.371L133.209 114.108L133.072 113.001L138.575 112.325L138.302 112.612C138.228 112.017 138.077 111.522 137.847 111.127C137.628 110.731 137.333 110.446 136.962 110.274C136.6 110.089 136.169 110.027 135.669 110.089C135.109 110.157 134.649 110.347 134.288 110.657C133.94 110.966 133.693 111.365 133.547 111.854C133.402 112.344 133.368 112.898 133.444 113.517L133.457 113.624C133.587 114.673 133.928 115.435 134.483 115.911C135.048 116.373 135.801 116.547 136.741 116.431C137.099 116.387 137.468 116.294 137.849 116.15C138.243 116.005 138.604 115.797 138.933 115.527C139.121 115.383 139.293 115.308 139.449 115.301C139.618 115.292 139.755 115.33 139.862 115.413C139.981 115.495 140.061 115.606 140.103 115.746C140.144 115.886 140.139 116.038 140.087 116.202C140.033 116.353 139.924 116.5 139.76 116.641C139.389 116.964 138.944 117.231 138.426 117.439C137.906 117.636 137.396 117.765 136.895 117.827ZM146.433 116.656C145.54 116.765 144.743 116.676 144.042 116.387C143.34 116.086 142.765 115.589 142.317 114.894C141.879 114.186 141.592 113.285 141.457 112.189L141.294 110.867C141.15 109.7 141.191 108.709 141.417 107.896C141.654 107.069 142.07 106.377 142.667 105.82C143.262 105.251 144.032 104.782 144.978 104.412L147.38 103.446C147.621 103.344 147.837 103.329 148.027 103.403C148.218 103.476 148.357 103.628 148.446 103.859C148.525 104.103 148.509 104.317 148.398 104.5C148.3 104.681 148.124 104.823 147.871 104.927L145.292 105.933C144.692 106.164 144.204 106.471 143.828 106.856C143.452 107.241 143.188 107.69 143.033 108.205C142.879 108.72 142.841 109.293 142.919 109.924L143.02 110.746L142.752 110.778C142.82 110.25 142.979 109.771 143.228 109.342C143.489 108.911 143.833 108.56 144.259 108.29C144.696 108.007 145.212 107.829 145.807 107.756C146.546 107.665 147.217 107.764 147.821 108.052C148.436 108.34 148.945 108.791 149.348 109.406C149.749 110.01 150.004 110.759 150.114 111.652C150.227 112.569 150.146 113.383 149.871 114.094C149.608 114.803 149.184 115.381 148.598 115.828C148.012 116.274 147.291 116.55 146.433 116.656ZM146.19 115.271C146.714 115.207 147.147 115.039 147.488 114.767C147.828 114.484 148.065 114.104 148.2 113.628C148.347 113.15 148.38 112.59 148.301 111.947C148.182 110.982 147.87 110.265 147.365 109.795C146.858 109.313 146.217 109.12 145.443 109.215C144.931 109.278 144.505 109.451 144.165 109.735C143.825 110.018 143.58 110.387 143.431 110.84C143.293 111.292 143.262 111.822 143.337 112.43C143.463 113.454 143.774 114.208 144.268 114.691C144.775 115.173 145.416 115.366 146.19 115.271ZM156.994 115.359C156.042 115.476 155.198 115.398 154.463 115.126C153.738 114.84 153.145 114.387 152.681 113.767C152.228 113.133 151.945 112.352 151.83 111.423C151.718 110.518 151.805 109.703 152.091 108.979C152.376 108.255 152.817 107.663 153.413 107.203C154.01 106.742 154.719 106.462 155.54 106.361C156.148 106.286 156.702 106.321 157.204 106.465C157.704 106.597 158.144 106.833 158.524 107.173C158.915 107.5 159.227 107.921 159.46 108.437C159.705 108.951 159.868 109.541 159.95 110.208C159.975 110.411 159.935 110.573 159.829 110.695C159.722 110.805 159.549 110.874 159.311 110.903L153.308 111.641L153.171 110.533L158.674 109.857L158.401 110.145C158.327 109.549 158.176 109.054 157.946 108.659C157.728 108.263 157.433 107.979 157.061 107.807C156.699 107.621 156.268 107.559 155.768 107.621C155.208 107.689 154.748 107.879 154.387 108.189C154.039 108.498 153.792 108.897 153.646 109.386C153.501 109.876 153.467 110.43 153.543 111.049L153.556 111.157C153.686 112.205 154.027 112.967 154.582 113.443C155.147 113.905 155.9 114.079 156.841 113.963C157.198 113.919 157.567 113.826 157.948 113.682C158.342 113.537 158.703 113.33 159.032 113.059C159.22 112.915 159.392 112.84 159.549 112.833C159.717 112.824 159.854 112.862 159.961 112.945C160.08 113.027 160.161 113.139 160.202 113.279C160.243 113.419 160.238 113.57 160.186 113.734C160.132 113.886 160.023 114.032 159.859 114.173C159.488 114.497 159.043 114.763 158.525 114.972C158.005 115.168 157.495 115.297 156.994 115.359ZM163.58 114.514C163.294 114.549 163.058 114.5 162.872 114.365C162.697 114.217 162.592 114.001 162.556 113.715L161.675 106.569C161.637 106.259 161.687 106.024 161.824 105.862C161.971 105.686 162.188 105.581 162.474 105.546C162.76 105.511 162.99 105.561 163.164 105.697C163.336 105.821 163.442 106.038 163.48 106.347L163.817 109.081L168.158 108.548L167.821 105.814C167.783 105.505 167.826 105.27 167.952 105.109C168.088 104.935 168.304 104.83 168.602 104.794C168.888 104.758 169.118 104.809 169.292 104.945C169.476 105.067 169.587 105.283 169.626 105.593L170.507 112.739C170.542 113.024 170.486 113.261 170.34 113.448C170.205 113.622 169.994 113.727 169.708 113.762C169.41 113.798 169.174 113.749 169 113.613C168.837 113.464 168.737 113.246 168.702 112.96L168.334 109.977L163.993 110.51L164.361 113.493C164.396 113.779 164.347 114.015 164.212 114.201C164.088 114.373 163.878 114.477 163.58 114.514ZM177.121 112.888C176.24 112.996 175.455 112.905 174.766 112.615C174.089 112.323 173.531 111.86 173.089 111.225C172.648 110.59 172.371 109.814 172.258 108.897C172.172 108.194 172.196 107.556 172.331 106.983C172.466 106.411 172.694 105.905 173.014 105.467C173.345 105.015 173.761 104.656 174.26 104.389C174.769 104.109 175.352 103.929 176.007 103.848C176.876 103.741 177.649 103.834 178.326 104.126C179.015 104.416 179.58 104.878 180.021 105.513C180.46 106.136 180.737 106.912 180.852 107.841C180.937 108.532 180.913 109.17 180.779 109.754C180.646 110.339 180.413 110.851 180.08 111.291C179.759 111.73 179.344 112.089 178.835 112.369C178.336 112.636 177.764 112.809 177.121 112.888ZM176.949 111.494C177.438 111.434 177.852 111.262 178.192 110.979C178.532 110.695 178.774 110.309 178.919 109.82C179.076 109.329 179.113 108.744 179.029 108.065C178.903 107.041 178.581 106.295 178.064 105.826C177.547 105.358 176.919 105.169 176.181 105.259C175.68 105.321 175.26 105.493 174.921 105.777C174.579 106.048 174.33 106.43 174.173 106.92C174.028 107.41 173.997 107.994 174.081 108.673C174.205 109.685 174.527 110.431 175.046 110.912C175.565 111.392 176.199 111.586 176.949 111.494ZM184.534 111.941C184.248 111.976 184.012 111.927 183.826 111.792C183.651 111.645 183.546 111.428 183.51 111.142L182.634 104.032C182.597 103.734 182.646 103.498 182.782 103.324C182.93 103.149 183.147 103.044 183.432 103.009C183.718 102.974 183.948 103.024 184.122 103.16C184.296 103.296 184.401 103.513 184.438 103.81L184.773 106.526L186.238 106.346L188.307 102.827C188.414 102.621 188.549 102.483 188.709 102.415C188.882 102.346 189.049 102.325 189.21 102.354C189.382 102.381 189.524 102.454 189.636 102.574C189.758 102.68 189.83 102.822 189.852 103.001C189.872 103.167 189.829 103.354 189.721 103.561L187.762 106.939L187.245 106.422C187.583 106.416 187.885 106.464 188.151 106.564C188.417 106.665 188.674 106.833 188.92 107.068C189.179 107.303 189.46 107.619 189.763 108.017L191.189 109.873C191.321 110.062 191.38 110.248 191.366 110.431C191.363 110.601 191.303 110.753 191.187 110.889C191.069 111.012 190.928 111.096 190.765 111.14C190.602 111.196 190.427 111.199 190.24 111.15C190.064 111.099 189.905 110.98 189.76 110.792L188.181 108.719C187.966 108.443 187.758 108.233 187.559 108.088C187.37 107.93 187.171 107.833 186.961 107.799C186.75 107.752 186.489 107.748 186.18 107.786L184.947 107.937L185.315 110.92C185.35 111.206 185.301 111.442 185.166 111.628C185.031 111.802 184.82 111.906 184.534 111.941ZM193.641 107.25C193.45 107.274 193.294 107.233 193.172 107.127C193.062 107.019 192.982 106.86 192.932 106.648L191.582 99.2336C191.514 98.8792 191.556 98.5839 191.708 98.3475C191.861 98.1112 192.121 97.9704 192.491 97.9251C192.836 97.8827 193.111 97.9577 193.316 98.1501C193.521 98.3426 193.628 98.6196 193.637 98.9813L194.129 106.501C194.143 106.717 194.104 106.891 194.012 107.024C193.931 107.154 193.807 107.23 193.641 107.25ZM194.068 110.716C193.722 110.759 193.429 110.686 193.189 110.498C192.948 110.31 192.807 110.049 192.766 109.715C192.725 109.382 192.799 109.101 192.988 108.872C193.176 108.631 193.443 108.49 193.788 108.447C194.134 108.405 194.421 108.479 194.65 108.668C194.877 108.846 195.011 109.101 195.052 109.435C195.094 109.768 195.026 110.054 194.85 110.294C194.674 110.533 194.413 110.674 194.068 110.716ZM38.2761 152.101C37.0017 152.257 35.8796 152.129 34.9098 151.716C33.9399 151.303 33.1514 150.645 32.5441 149.74C31.9473 148.822 31.5673 147.702 31.4043 146.38C31.2824 145.391 31.31 144.487 31.487 143.667C31.6625 142.836 31.9719 142.109 32.415 141.486C32.8686 140.85 33.4522 140.337 34.1658 139.947C34.8914 139.556 35.7306 139.302 36.6835 139.185C37.3862 139.098 38.0709 139.111 38.7375 139.223C39.4161 139.333 40.0156 139.537 40.5361 139.836C40.7548 139.942 40.9056 140.087 40.9887 140.27C41.0821 140.44 41.1153 140.611 41.0883 140.784C41.0731 140.955 41.0133 141.107 40.9089 141.241C40.803 141.363 40.6555 141.441 40.4664 141.477C40.2892 141.511 40.0846 141.469 39.8526 141.353C39.4228 141.103 38.9609 140.936 38.4669 140.852C37.9728 140.767 37.4638 140.757 36.9397 140.822C36.0345 140.933 35.2957 141.217 34.7234 141.674C34.1496 142.119 33.7459 142.719 33.5124 143.473C33.279 144.227 33.2254 145.116 33.3517 146.141C33.478 147.165 33.7467 148.02 34.1579 148.707C34.5676 149.383 35.1056 149.873 35.7719 150.178C36.4368 150.471 37.2219 150.562 38.1271 150.451C38.6511 150.386 39.1426 150.254 39.6014 150.052C40.0706 149.837 40.5013 149.555 40.8933 149.204C41.0916 149.047 41.2748 148.964 41.443 148.956C41.6231 148.945 41.7793 148.987 41.9117 149.079C42.044 149.172 42.1383 149.299 42.1946 149.462C42.2613 149.611 42.2759 149.778 42.2384 149.964C42.2113 150.137 42.1158 150.293 41.9518 150.435C41.512 150.888 40.971 151.256 40.329 151.541C39.687 151.825 39.0027 152.012 38.2761 152.101ZM50.2142 150.599C49.9283 150.634 49.6925 150.584 49.5067 150.45C49.3313 150.302 49.2259 150.085 49.1907 149.8L48.3095 142.654C48.2714 142.344 48.3209 142.108 48.4581 141.946C48.6057 141.771 48.8225 141.666 49.1084 141.631C49.3942 141.596 49.6241 141.646 49.798 141.782C49.9705 141.906 50.0758 142.123 50.114 142.432L50.451 145.165L54.7924 144.632L54.4554 141.899C54.4172 141.589 54.4608 141.354 54.5861 141.194C54.7218 141.02 54.9386 140.915 55.2363 140.878C55.5222 140.843 55.7521 140.894 55.926 141.029C56.1104 141.152 56.2217 141.368 56.2598 141.678L57.141 148.823C57.1762 149.109 57.1208 149.346 56.9746 149.533C56.8388 149.707 56.628 149.811 56.3422 149.846C56.0444 149.883 55.8086 149.833 55.6346 149.698C55.4712 149.548 55.3718 149.331 55.3365 149.045L54.9687 146.062L50.6273 146.595L50.9951 149.578C51.0304 149.864 50.9809 150.1 50.8466 150.285C50.7228 150.458 50.512 150.562 50.2142 150.599ZM62.7551 149.095C62.1477 149.17 61.5851 149.118 61.0674 148.94C60.5616 148.76 60.1468 148.485 59.8229 148.113C59.499 147.742 59.3055 147.3 59.2424 146.788C59.1631 146.145 59.2614 145.619 59.5375 145.21C59.824 144.788 60.3329 144.454 61.0642 144.207C61.8059 143.947 62.8199 143.737 64.1062 143.579L64.9459 143.476L65.0825 144.584L64.2607 144.685C63.4031 144.79 62.7294 144.915 62.2394 145.06C61.7494 145.205 61.4097 145.392 61.2203 145.62C61.0413 145.836 60.9731 146.116 61.0157 146.462C61.0715 146.914 61.2719 147.264 61.6168 147.512C61.9603 147.748 62.4059 147.832 62.9538 147.765C63.3945 147.711 63.7691 147.562 64.0777 147.319C64.3847 147.064 64.6115 146.746 64.758 146.365C64.9164 145.983 64.967 145.559 64.9097 145.095L64.6564 143.04C64.5727 142.362 64.3696 141.891 64.047 141.628C63.7244 141.366 63.2356 141.274 62.5805 141.355C62.1994 141.402 61.8062 141.498 61.4011 141.645C61.0079 141.79 60.6049 142.002 60.1921 142.283C60.0014 142.403 59.8324 142.454 59.685 142.436C59.5377 142.418 59.415 142.354 59.3169 142.245C59.2174 142.124 59.1529 141.993 59.1234 141.852C59.1043 141.697 59.1216 141.544 59.1755 141.392C59.2412 141.239 59.365 141.115 59.5467 141.02C60.04 140.706 60.536 140.463 61.035 140.293C61.5339 140.123 62.0097 140.01 62.4623 139.955C63.2603 139.857 63.9308 139.901 64.4738 140.089C65.0287 140.274 65.4628 140.608 65.7761 141.089C66.0893 141.571 66.2959 142.216 66.3958 143.026L66.9619 147.618C66.9971 147.903 66.9536 148.138 66.8312 148.323C66.7074 148.495 66.5085 148.598 66.2345 148.632C65.9725 148.664 65.7545 148.612 65.5806 148.476C65.4052 148.329 65.2999 148.112 65.2646 147.826L65.1214 146.665L65.2822 146.645C65.2413 147.097 65.1096 147.5 64.8873 147.854C64.6753 148.195 64.3891 148.471 64.0285 148.685C63.6679 148.899 63.2434 149.035 62.7551 149.095ZM70.555 148.101C70.293 148.133 70.0817 148.087 69.9211 147.961C69.771 147.823 69.6791 147.616 69.6453 147.342L68.7642 140.197C68.7392 139.994 68.7477 139.818 68.7896 139.668C68.8315 139.517 68.9076 139.399 69.0179 139.313C69.1268 139.215 69.2765 139.154 69.467 139.131C69.6457 139.109 69.7982 139.121 69.9247 139.165C70.0511 139.21 70.1619 139.275 70.257 139.36C70.3522 139.445 70.4368 139.544 70.5111 139.656L73.9864 144.307L76.2103 138.956C76.2656 138.816 76.3291 138.693 76.4007 138.588C76.4723 138.482 76.5647 138.399 76.678 138.336C76.7897 138.262 76.929 138.215 77.0957 138.194C77.3697 138.161 77.5824 138.219 77.734 138.37C77.8975 138.519 77.9983 138.748 78.0365 139.058L78.9177 146.204C78.9514 146.478 78.9064 146.701 78.7826 146.873C78.6692 147.032 78.4815 147.128 78.2194 147.16C77.9693 147.191 77.764 147.144 77.6034 147.018C77.4533 146.879 77.3614 146.673 77.3276 146.399L76.6007 140.504L77.0116 140.453L74.7924 145.695C74.746 145.809 74.6804 145.914 74.5954 146.009C74.5103 146.104 74.3845 146.162 74.2177 146.183C74.0391 146.205 73.897 146.18 73.7914 146.108C73.6963 146.023 73.6131 145.936 73.5418 145.849L70.0975 141.302L70.5084 141.252L71.2354 147.147C71.2691 147.421 71.2241 147.644 71.1003 147.817C70.9869 147.976 70.8051 148.071 70.555 148.101ZM82.5769 146.625C82.3982 146.647 82.239 146.63 82.0992 146.575C81.9727 146.53 81.8649 146.441 81.7759 146.306C81.6987 146.171 81.6461 145.99 81.6182 145.764L80.7393 138.636C80.7041 138.35 80.7491 138.127 80.8744 137.966C80.9982 137.794 81.1912 137.691 81.4532 137.659C81.7152 137.627 81.9272 137.68 82.0893 137.817C82.2498 137.942 82.3477 138.148 82.383 138.434L83.1451 144.615L82.6806 144.672L86.7248 137.61C86.8248 137.441 86.9449 137.287 87.0851 137.149C87.2252 137.011 87.4263 136.926 87.6884 136.894C87.867 136.872 88.0203 136.889 88.1482 136.946C88.2747 136.991 88.3765 137.081 88.4537 137.217C88.5427 137.351 88.6012 137.531 88.6291 137.758L89.5081 144.886C89.5419 145.159 89.4968 145.383 89.373 145.555C89.2611 145.726 89.0741 145.827 88.8121 145.86C88.5381 145.893 88.3201 145.841 88.1581 145.704C87.9961 145.567 87.8982 145.361 87.8644 145.087L87.1022 138.906L87.5846 138.847L83.5248 145.928C83.4352 146.085 83.3203 146.232 83.1802 146.37C83.0519 146.506 82.8508 146.592 82.5769 146.625ZM97.0431 140.623C96.8288 140.65 96.6413 140.6 96.4807 140.475C96.3202 140.35 96.2274 140.186 96.2025 139.983C96.176 139.769 96.2262 139.587 96.353 139.439C96.4783 139.278 96.6481 139.185 96.8625 139.159L100.793 138.676C100.995 138.651 101.177 138.701 101.338 138.827C101.497 138.94 101.589 139.104 101.616 139.318C101.641 139.521 101.591 139.702 101.465 139.863C101.34 140.023 101.176 140.116 100.974 140.141L97.0431 140.623ZM113.218 142.899C112.337 143.007 111.552 142.916 110.863 142.626C110.186 142.334 109.627 141.871 109.186 141.236C108.745 140.601 108.468 139.825 108.355 138.908C108.268 138.205 108.293 137.568 108.428 136.995C108.562 136.422 108.79 135.917 109.111 135.478C109.442 135.027 109.857 134.667 110.357 134.401C110.866 134.12 111.448 133.94 112.103 133.86C112.973 133.753 113.746 133.845 114.423 134.137C115.112 134.427 115.676 134.89 116.117 135.525C116.557 136.148 116.834 136.924 116.949 137.853C117.034 138.544 117.01 139.181 116.876 139.766C116.743 140.351 116.51 140.863 116.177 141.303C115.856 141.741 115.441 142.1 114.932 142.381C114.432 142.647 113.861 142.82 113.218 142.899ZM113.046 141.506C113.535 141.446 113.949 141.274 114.289 140.991C114.628 140.707 114.871 140.321 115.016 139.831C115.173 139.34 115.21 138.756 115.126 138.077C115 137.052 114.678 136.306 114.161 135.838C113.644 135.369 113.016 135.18 112.278 135.271C111.777 135.332 111.357 135.505 111.017 135.788C110.676 136.06 110.427 136.441 110.27 136.932C110.124 137.421 110.094 138.005 110.177 138.684C110.302 139.697 110.624 140.443 111.143 140.923C111.661 141.404 112.296 141.598 113.046 141.506ZM122.453 141.729C122.167 141.764 121.931 141.714 121.745 141.58C121.57 141.432 121.465 141.216 121.43 140.93L120.63 134.445L118.2 134.743C117.676 134.808 117.384 134.596 117.324 134.107C117.297 133.893 117.347 133.711 117.474 133.563C117.601 133.414 117.783 133.325 118.022 133.296L124.686 132.478C125.21 132.414 125.501 132.62 125.56 133.096C125.589 133.334 125.541 133.528 125.414 133.676C125.297 133.811 125.114 133.894 124.864 133.925L122.434 134.223L123.234 140.708C123.269 140.994 123.22 141.23 123.085 141.416C122.962 141.588 122.751 141.692 122.453 141.729ZM133.507 140.372C133.221 140.407 132.985 140.357 132.799 140.223C132.624 140.075 132.518 139.858 132.483 139.573L131.606 132.462C131.57 132.165 131.619 131.929 131.755 131.755C131.903 131.58 132.119 131.475 132.405 131.439C132.691 131.404 132.921 131.455 133.095 131.591C133.269 131.726 133.374 131.943 133.411 132.241L133.746 134.956L135.211 134.776L137.28 131.258C137.387 131.051 137.521 130.914 137.682 130.846C137.855 130.776 138.022 130.756 138.182 130.784C138.355 130.812 138.497 130.885 138.609 131.004C138.73 131.11 138.802 131.252 138.824 131.431C138.845 131.598 138.802 131.785 138.694 131.991L136.735 135.369L136.218 134.852C136.555 134.847 136.858 134.895 137.124 134.995C137.39 135.095 137.647 135.263 137.893 135.499C138.152 135.733 138.433 136.049 138.736 136.447L140.162 138.303C140.294 138.493 140.353 138.679 140.339 138.862C140.336 139.032 140.276 139.184 140.16 139.319C140.042 139.442 139.901 139.526 139.737 139.57C139.575 139.627 139.4 139.63 139.213 139.581C139.037 139.53 138.877 139.41 138.733 139.222L137.154 137.149C136.938 136.874 136.731 136.663 136.532 136.518C136.343 136.36 136.144 136.264 135.934 136.229C135.723 136.183 135.462 136.178 135.152 136.216L133.92 136.368L134.288 139.351C134.323 139.637 134.273 139.873 134.139 140.058C134.003 140.232 133.793 140.337 133.507 140.372ZM145.071 138.988C144.463 139.063 143.901 139.011 143.383 138.833C142.877 138.653 142.462 138.378 142.138 138.006C141.814 137.635 141.621 137.193 141.558 136.681C141.478 136.038 141.577 135.512 141.853 135.103C142.139 134.681 142.648 134.347 143.38 134.1C144.121 133.84 145.135 133.63 146.422 133.472L147.261 133.369L147.398 134.477L146.576 134.578C145.719 134.683 145.045 134.808 144.555 134.953C144.065 135.098 143.725 135.285 143.536 135.513C143.357 135.729 143.289 136.009 143.331 136.355C143.387 136.807 143.587 137.157 143.932 137.405C144.276 137.641 144.721 137.725 145.269 137.658C145.71 137.604 146.085 137.455 146.393 137.212C146.7 136.956 146.927 136.638 147.073 136.258C147.232 135.876 147.282 135.452 147.225 134.988L146.972 132.933C146.888 132.255 146.685 131.784 146.362 131.521C146.04 131.258 145.551 131.167 144.896 131.248C144.515 131.295 144.122 131.391 143.717 131.538C143.323 131.683 142.92 131.895 142.508 132.176C142.317 132.296 142.148 132.347 142 132.329C141.853 132.311 141.73 132.247 141.632 132.138C141.533 132.017 141.468 131.886 141.439 131.745C141.42 131.59 141.437 131.437 141.491 131.285C141.557 131.132 141.68 131.008 141.862 130.913C142.355 130.599 142.851 130.356 143.35 130.186C143.849 130.016 144.325 129.903 144.778 129.848C145.576 129.75 146.246 129.794 146.789 129.982C147.344 130.167 147.778 130.501 148.091 130.982C148.405 131.464 148.611 132.109 148.711 132.919L149.277 137.511C149.313 137.796 149.269 138.031 149.147 138.216C149.023 138.388 148.824 138.491 148.55 138.525C148.288 138.557 148.07 138.505 147.896 138.369C147.721 138.222 147.615 138.005 147.58 137.719L147.437 136.558L147.598 136.538C147.557 136.99 147.425 137.393 147.203 137.747C146.991 138.087 146.704 138.364 146.344 138.578C145.983 138.791 145.559 138.928 145.071 138.988ZM155.93 137.655C155.037 137.765 154.24 137.675 153.539 137.386C152.837 137.086 152.262 136.588 151.813 135.893C151.375 135.185 151.089 134.284 150.954 133.188L150.791 131.866C150.647 130.699 150.688 129.708 150.914 128.895C151.151 128.068 151.567 127.376 152.163 126.819C152.758 126.25 153.529 125.781 154.475 125.411L156.876 124.445C157.118 124.343 157.334 124.328 157.524 124.402C157.714 124.475 157.854 124.627 157.943 124.858C158.021 125.102 158.005 125.316 157.895 125.499C157.796 125.68 157.621 125.823 157.367 125.926L154.789 126.932C154.189 127.163 153.701 127.471 153.325 127.855C152.949 128.24 152.684 128.69 152.53 129.204C152.376 129.719 152.338 130.292 152.416 130.923L152.517 131.745L152.249 131.778C152.317 131.249 152.475 130.771 152.725 130.341C152.986 129.91 153.33 129.559 153.756 129.289C154.192 129.006 154.708 128.828 155.304 128.755C156.042 128.664 156.714 128.763 157.317 129.052C157.933 129.339 158.442 129.79 158.845 130.406C159.246 131.009 159.501 131.758 159.611 132.651C159.724 133.568 159.643 134.382 159.368 135.093C159.105 135.802 158.681 136.38 158.095 136.827C157.509 137.274 156.787 137.55 155.93 137.655ZM155.687 136.27C156.211 136.206 156.643 136.038 156.985 135.766C157.325 135.483 157.562 135.103 157.697 134.627C157.843 134.15 157.877 133.589 157.798 132.946C157.679 131.981 157.367 131.264 156.861 130.794C156.354 130.312 155.714 130.119 154.94 130.214C154.428 130.277 154.002 130.45 153.662 130.734C153.322 131.017 153.077 131.386 152.928 131.839C152.79 132.292 152.759 132.821 152.833 133.429C152.96 134.453 153.27 135.207 153.765 135.69C154.272 136.172 154.912 136.365 155.687 136.27ZM163.217 136.724C163.039 136.746 162.879 136.729 162.74 136.674C162.613 136.629 162.505 136.539 162.416 136.405C162.339 136.269 162.287 136.088 162.259 135.862L161.38 128.734C161.345 128.448 161.39 128.225 161.515 128.065C161.639 127.892 161.832 127.79 162.094 127.758C162.356 127.726 162.568 127.778 162.73 127.916C162.89 128.041 162.988 128.247 163.023 128.532L163.786 134.714L163.321 134.771L167.365 127.709C167.465 127.54 167.585 127.386 167.726 127.248C167.866 127.11 168.067 127.024 168.329 126.992C168.508 126.97 168.661 126.988 168.789 127.045C168.915 127.09 169.017 127.18 169.094 127.315C169.183 127.45 169.242 127.63 169.27 127.856L170.149 134.984C170.182 135.258 170.137 135.481 170.013 135.654C169.902 135.824 169.715 135.926 169.453 135.958C169.179 135.992 168.961 135.94 168.799 135.803C168.637 135.665 168.539 135.46 168.505 135.186L167.743 129.005L168.225 128.946L164.165 136.027C164.076 136.183 163.961 136.33 163.821 136.468C163.692 136.605 163.491 136.69 163.217 136.724ZM173.879 135.415C173.593 135.45 173.358 135.4 173.172 135.266C172.996 135.118 172.891 134.901 172.856 134.615L171.975 127.47C171.936 127.16 171.986 126.924 172.123 126.762C172.271 126.587 172.488 126.482 172.773 126.447C173.059 126.411 173.289 126.462 173.463 126.598C173.636 126.722 173.741 126.938 173.779 127.248L174.116 129.981L178.457 129.448L178.12 126.715C178.082 126.405 178.126 126.17 178.251 126.01C178.387 125.836 178.604 125.731 178.901 125.694C179.187 125.659 179.417 125.709 179.591 125.845C179.775 125.968 179.887 126.184 179.925 126.493L180.806 133.639C180.841 133.925 180.786 134.162 180.64 134.349C180.504 134.523 180.293 134.627 180.007 134.662C179.709 134.699 179.474 134.649 179.3 134.513C179.136 134.364 179.037 134.147 179.002 133.861L178.634 130.877L174.292 131.41L174.66 134.394C174.695 134.68 174.646 134.916 174.512 135.101C174.388 135.274 174.177 135.378 173.879 135.415ZM187.724 133.751C186.772 133.868 185.928 133.79 185.193 133.518C184.468 133.232 183.874 132.779 183.411 132.159C182.958 131.525 182.674 130.744 182.56 129.815C182.448 128.91 182.535 128.095 182.821 127.371C183.106 126.647 183.547 126.055 184.143 125.595C184.739 125.135 185.448 124.854 186.27 124.753C186.878 124.679 187.432 124.713 187.933 124.857C188.433 124.989 188.874 125.225 189.254 125.566C189.645 125.892 189.957 126.313 190.19 126.829C190.435 127.343 190.598 127.933 190.68 128.6C190.705 128.803 190.665 128.965 190.559 129.087C190.451 129.197 190.279 129.266 190.041 129.295L184.038 130.033L183.901 128.925L189.404 128.249L189.131 128.537C189.057 127.941 188.906 127.446 188.676 127.051C188.457 126.655 188.162 126.371 187.791 126.199C187.429 126.013 186.998 125.951 186.498 126.013C185.938 126.081 185.478 126.271 185.117 126.581C184.768 126.89 184.521 127.289 184.376 127.778C184.231 128.268 184.197 128.822 184.273 129.441L184.286 129.549C184.415 130.597 184.757 131.359 185.312 131.835C185.877 132.297 186.629 132.471 187.57 132.355C187.928 132.311 188.297 132.218 188.678 132.074C189.072 131.929 189.433 131.722 189.762 131.451C189.95 131.308 190.122 131.232 190.278 131.225C190.447 131.216 190.584 131.254 190.691 131.337C190.81 131.42 190.89 131.531 190.932 131.671C190.973 131.811 190.968 131.962 190.915 132.126C190.862 132.278 190.753 132.424 190.589 132.565C190.218 132.889 189.773 133.155 189.254 133.364C188.735 133.56 188.225 133.69 187.724 133.751ZM196.132 132.682C195.846 132.717 195.61 132.668 195.425 132.533C195.249 132.386 195.144 132.169 195.109 131.883L194.309 125.398L191.879 125.697C191.355 125.761 191.063 125.549 191.003 125.061C190.976 124.846 191.027 124.665 191.153 124.516C191.28 124.368 191.463 124.279 191.701 124.25L198.365 123.431C198.889 123.367 199.18 123.573 199.239 124.049C199.268 124.288 199.22 124.481 199.093 124.63C198.977 124.765 198.793 124.848 198.543 124.878L196.113 125.177L196.913 131.662C196.948 131.947 196.899 132.183 196.765 132.369C196.641 132.541 196.43 132.646 196.132 132.682ZM204.373 131.707C203.766 131.781 203.203 131.73 202.686 131.551C202.18 131.372 201.765 131.096 201.441 130.725C201.117 130.353 200.924 129.912 200.86 129.4C200.781 128.757 200.88 128.231 201.156 127.822C201.442 127.4 201.951 127.065 202.682 126.818C203.424 126.558 204.438 126.349 205.724 126.191L206.564 126.088L206.701 127.195L205.879 127.296C205.021 127.402 204.347 127.527 203.858 127.672C203.368 127.816 203.028 128.003 202.838 128.232C202.659 128.447 202.591 128.728 202.634 129.073C202.69 129.526 202.89 129.876 203.235 130.124C203.578 130.36 204.024 130.444 204.572 130.377C205.013 130.323 205.387 130.174 205.696 129.93C206.003 129.675 206.23 129.357 206.376 128.976C206.535 128.594 206.585 128.171 206.528 127.706L206.275 125.652C206.191 124.973 205.988 124.502 205.665 124.24C205.343 123.977 204.854 123.886 204.199 123.966C203.817 124.013 203.424 124.11 203.019 124.256C202.626 124.401 202.223 124.614 201.81 124.894C201.62 125.014 201.45 125.065 201.303 125.047C201.156 125.029 201.033 124.966 200.935 124.857C200.836 124.736 200.771 124.605 200.741 124.463C200.722 124.309 200.74 124.155 200.794 124.004C200.859 123.85 200.983 123.726 201.165 123.632C201.658 123.317 202.154 123.075 202.653 122.905C203.152 122.735 203.628 122.622 204.08 122.566C204.878 122.468 205.549 122.513 206.092 122.7C206.647 122.886 207.081 123.22 207.394 123.701C207.707 124.182 207.914 124.828 208.014 125.638L208.58 130.229C208.615 130.515 208.572 130.75 208.449 130.934C208.325 131.107 208.127 131.21 207.853 131.243C207.591 131.275 207.373 131.224 207.199 131.088C207.023 130.94 206.918 130.723 206.883 130.437L206.74 129.276L206.9 129.257C206.859 129.709 206.728 130.112 206.505 130.466C206.293 130.806 206.007 131.083 205.647 131.297C205.286 131.51 204.862 131.647 204.373 131.707ZM35.3905 176.942C35.1523 176.971 34.9529 176.923 34.7924 176.798C34.6318 176.672 34.5354 176.478 34.5031 176.216L34.2321 174.019C34.1616 173.447 34.4182 173.126 35.0018 173.054L35.913 172.942L34.8873 173.449C35.156 172.981 35.3563 172.497 35.4881 171.997C35.6199 171.497 35.6901 170.938 35.6985 170.321C35.7175 169.69 35.677 168.969 35.5771 168.16L35.3899 166.641C35.3502 166.319 35.4028 166.059 35.5475 165.86C35.7041 165.659 35.9492 165.539 36.2827 165.498L40.6955 164.956C41.0171 164.916 41.2783 164.975 41.4789 165.132C41.6796 165.288 41.7998 165.528 41.8394 165.849L42.7162 172.959L41.773 172.223L43.1486 172.054C43.4226 172.02 43.6398 172.066 43.8004 172.191C43.9728 172.315 44.0767 172.52 44.1119 172.806L44.3829 175.003C44.4504 175.551 44.2281 175.857 43.716 175.919C43.4659 175.95 43.2665 175.902 43.1178 175.775C42.9692 175.648 42.8787 175.454 42.8464 175.192L42.646 173.566L35.8569 174.4L36.0574 176.026C36.125 176.573 35.9027 176.879 35.3905 176.942ZM36.7705 172.837L40.8975 172.33L40.1728 166.453L37.0105 166.841L37.1956 168.342C37.2969 169.163 37.3119 169.972 37.2406 170.766C37.1694 171.561 37.0126 172.251 36.7705 172.837ZM49.8035 172.851C48.9221 172.959 48.137 172.868 47.4483 172.578C46.7716 172.286 46.2127 171.823 45.7716 171.188C45.3306 170.553 45.0536 169.777 44.9405 168.86C44.8538 168.157 44.878 167.519 45.0129 166.947C45.1478 166.374 45.3757 165.868 45.6964 165.43C46.0276 164.978 46.4428 164.619 46.9419 164.352C47.4514 164.072 48.0337 163.892 48.6888 163.811C49.5583 163.704 50.3314 163.797 51.0082 164.089C51.6969 164.379 52.2617 164.841 52.7028 165.476C53.1423 166.1 53.4194 166.876 53.5339 167.804C53.6191 168.495 53.595 169.133 53.4615 169.718C53.3281 170.302 53.095 170.814 52.7623 171.254C52.4416 171.693 52.0264 172.052 51.5169 172.332C51.0178 172.599 50.4466 172.772 49.8035 172.851ZM49.6316 171.457C50.12 171.397 50.5341 171.226 50.8739 170.942C51.2138 170.659 51.4563 170.272 51.6015 169.783C51.7586 169.292 51.7953 168.707 51.7116 168.028C51.5853 167.004 51.2636 166.258 50.7463 165.789C50.2291 165.321 49.6013 165.132 48.8628 165.223C48.3626 165.284 47.9425 165.456 47.6027 165.74C47.2614 166.012 47.0121 166.393 46.855 166.884C46.7098 167.373 46.6791 167.957 46.7628 168.636C46.8876 169.648 47.2094 170.395 47.7281 170.875C48.2467 171.355 48.8813 171.549 49.6316 171.457ZM73.1125 172.909C72.8386 172.942 72.6206 172.89 72.4586 172.753C72.298 172.628 72.2016 172.434 72.1693 172.172L71.8983 169.975L62.1078 171.177C61.7863 171.216 61.5259 171.164 61.3266 171.019C61.1379 170.861 61.0237 170.621 60.984 170.299L59.6557 159.527C59.6175 159.217 59.6663 158.975 59.802 158.802C59.9482 158.614 60.1702 158.502 60.4679 158.466C60.7657 158.429 61.0023 158.485 61.1777 158.633C61.3635 158.767 61.4755 158.989 61.5137 159.299L62.7738 169.517L69.7236 168.664L68.4635 158.445C68.4253 158.136 68.4741 157.894 68.6099 157.72C68.7561 157.533 68.978 157.421 69.2758 157.384C69.5736 157.348 69.8101 157.403 69.9855 157.551C70.1595 157.687 70.2655 157.91 70.3037 158.219L71.6651 169.26L70.7419 168.539L72.4749 168.326C72.7608 168.291 72.9847 168.342 73.1467 168.479C73.3192 168.603 73.4238 168.814 73.4605 169.112L73.8129 171.97C73.882 172.53 73.6485 172.843 73.1125 172.909ZM76.4145 169.42C76.0929 169.46 75.8325 169.407 75.6333 169.262C75.4445 169.104 75.3303 168.864 75.2906 168.543L73.9843 157.949C73.9447 157.627 73.9979 157.373 74.1441 157.186C74.3008 156.985 74.5399 156.865 74.8614 156.825L81.3825 156.025C81.6326 155.994 81.8312 156.036 81.9784 156.151C82.1241 156.254 82.2117 156.425 82.241 156.663C82.2719 156.913 82.2299 157.112 82.115 157.259C82.0001 157.406 81.8176 157.495 81.5675 157.525L75.8326 158.23L76.3194 162.178L81.6613 161.522C81.9233 161.49 82.122 161.532 82.2572 161.648C82.4044 161.763 82.4927 161.94 82.5221 162.178C82.5529 162.428 82.5109 162.626 82.396 162.774C82.2916 162.907 82.1084 162.99 81.8463 163.022L76.5045 163.678L77.0155 167.823L82.7505 167.119C83.0006 167.088 83.1992 167.13 83.3464 167.245C83.4936 167.36 83.5818 167.537 83.6112 167.775C83.642 168.025 83.6 168.223 83.4852 168.371C83.3688 168.506 83.1856 168.589 82.9355 168.619L76.4145 169.42ZM86.879 168.262C86.5813 168.299 86.3387 168.244 86.1514 168.098C85.976 167.95 85.87 167.727 85.8333 167.429L84.4829 156.478C84.4447 156.169 84.4935 155.927 84.6292 155.753C84.7754 155.566 84.9974 155.454 85.2952 155.417C85.5929 155.381 85.8295 155.436 86.0049 155.584C86.1907 155.719 86.3028 155.941 86.3409 156.25L86.9093 160.859L93.9663 159.993L93.3979 155.384C93.3598 155.074 93.4085 154.832 93.5443 154.658C93.6905 154.471 93.9125 154.359 94.2102 154.323C94.508 154.286 94.7446 154.342 94.92 154.49C95.0939 154.625 95.1999 154.848 95.2381 155.158L96.5885 166.109C96.6252 166.407 96.5764 166.648 96.4421 166.834C96.3079 167.02 96.0918 167.131 95.7941 167.168C95.4963 167.204 95.2538 167.149 95.0665 167.003C94.8911 166.855 94.785 166.633 94.7483 166.335L94.1579 161.547L87.1009 162.414L87.6913 167.201C87.728 167.499 87.6792 167.741 87.545 167.927C87.4107 168.112 87.1887 168.224 86.879 168.262ZM103.648 166.203C103.35 166.24 103.108 166.185 102.92 166.039C102.745 165.891 102.639 165.668 102.602 165.37L101.342 155.152L97.5546 155.617C97.3044 155.648 97.0998 155.606 96.9407 155.493C96.7802 155.367 96.6845 155.18 96.6537 154.93C96.6228 154.679 96.6708 154.48 96.7976 154.332C96.9243 154.183 97.1128 154.093 97.3629 154.063L106.778 152.907C107.04 152.874 107.251 152.915 107.41 153.029C107.569 153.142 107.664 153.324 107.695 153.574C107.726 153.824 107.678 154.029 107.553 154.19C107.426 154.338 107.232 154.429 106.97 154.461L103.182 154.926L104.442 165.144C104.479 165.442 104.43 165.684 104.296 165.87C104.174 166.054 103.958 166.165 103.648 166.203ZM111.497 165.239C111.199 165.276 110.957 165.221 110.769 165.075C110.594 164.927 110.488 164.704 110.451 164.407L109.116 153.581C109.078 153.271 109.133 153.029 109.28 152.853C109.427 152.666 109.649 152.554 109.946 152.518L114.216 151.993C115.574 151.827 116.664 152.037 117.486 152.626C118.307 153.202 118.792 154.097 118.942 155.312C119.093 156.539 118.841 157.537 118.187 158.307C117.53 159.064 116.523 159.526 115.166 159.693L111.807 160.105L112.309 164.179C112.346 164.476 112.297 164.718 112.163 164.904C112.029 165.09 111.807 165.201 111.497 165.239ZM111.624 158.623L114.715 158.243C115.608 158.133 116.257 157.854 116.661 157.406C117.076 156.944 117.234 156.32 117.137 155.534C117.042 154.76 116.738 154.205 116.225 153.869C115.722 153.519 115.024 153.399 114.131 153.509L111.04 153.889L111.624 158.623ZM120.616 164.12C120.378 164.149 120.18 164.119 120.024 164.029C119.868 163.94 119.767 163.807 119.721 163.631C119.675 163.455 119.686 163.249 119.753 163.011L123.256 151.554C123.34 151.254 123.464 151.033 123.628 150.892C123.803 150.75 124.005 150.665 124.231 150.637C124.445 150.61 124.649 150.646 124.842 150.743C125.048 150.839 125.227 151.022 125.382 151.293L131.563 161.561C131.698 161.774 131.765 161.977 131.765 162.171C131.763 162.352 131.703 162.505 131.586 162.628C131.466 162.739 131.288 162.809 131.049 162.839C130.787 162.871 130.571 162.831 130.4 162.719C130.229 162.607 130.067 162.421 129.914 162.162L128.307 159.422L129.208 159.819L121.597 160.753L122.357 160.152L121.481 163.197C121.397 163.498 121.292 163.722 121.165 163.871C121.037 164.008 120.854 164.091 120.616 164.12ZM124.464 152.821L122.555 159.547L122.055 159.174L128.362 158.399L128.004 158.878L124.5 152.816L124.464 152.821ZM134.087 158.893C133.897 158.916 133.74 158.875 133.619 158.769C133.509 158.662 133.428 158.502 133.378 158.291L132.029 150.876C131.961 150.522 132.003 150.227 132.155 149.99C132.307 149.754 132.568 149.613 132.937 149.568C133.283 149.525 133.558 149.6 133.763 149.793C133.968 149.985 134.075 150.262 134.083 150.624L134.575 158.144C134.59 158.36 134.551 158.534 134.458 158.666C134.378 158.797 134.254 158.873 134.087 158.893ZM134.515 162.359C134.169 162.401 133.876 162.328 133.635 162.14C133.394 161.952 133.253 161.692 133.212 161.358C133.171 161.025 133.245 160.743 133.435 160.515C133.623 160.274 133.889 160.132 134.235 160.09C134.58 160.048 134.867 160.121 135.096 160.311C135.324 160.488 135.458 160.744 135.499 161.077C135.54 161.411 135.473 161.697 135.297 161.936C135.121 162.176 134.86 162.316 134.515 162.359Z" fill="#313326"/>
<path d="M153.809 22.6171L55.4479 34.6512L53.2545 13.3827L151.602 1.36301L153.809 22.6171Z" fill="#B0CB1F"/>
<mask id="mask0_2_221" style="mask-type:luminance" maskUnits="userSpaceOnUse" x="54" y="2" width="99" height="32">
<path d="M152.318 12.2953C152.876 17.4507 149.193 22.1304 144.045 22.8068L65.4683 33.1317C60.2021 33.8237 55.422 30.0687 54.8552 24.7944L54.7376 23.7001C54.1838 18.5465 57.8671 13.8708 63.0131 13.1953L141.59 2.88032C146.853 2.18941 151.631 5.9403 152.201 11.211L152.318 12.2953Z" fill="white" stroke="white"/>
</mask>
<g mask="url(#mask0_2_221)">
<path d="M72.6463 3.51993L54.9897 41.9902" stroke="#A0BB0F" stroke-width="1.39" stroke-miterlimit="10"/>
<path d="M86.0225 4.82134L71.4175 37.9475" stroke="#A0BB0F" stroke-width="1.39" stroke-miterlimit="10"/>
<path d="M102.126 4.00052L90.0591 32.2346" stroke="#A0BB0F" stroke-width="1.39" stroke-miterlimit="10"/>
<path d="M118.435 1.38424L108.059 29.851" stroke="#A0BB0F" stroke-width="1.39" stroke-miterlimit="10"/>
<path d="M133.885 0.300973L123.535 29.3305" stroke="#A0BB0F" stroke-width="1.39" stroke-miterlimit="10"/>
<path d="M150.105 -2.10109L139.501 28.2039" stroke="#A0BB0F" stroke-width="1.39" stroke-miterlimit="10"/>
</g>
</svg>
