<svg width="234" height="206" fill="none" xmlns="http://www.w3.org/2000/svg"><rect y="30.699" width="214.045" height="176" rx="24" transform="rotate(-7 0 30.699)" fill="#fff"/><path d="M28.17 108.975c-.297.037-.54-.018-.727-.165-.176-.147-.282-.37-.318-.668l-1.353-10.969c-.038-.31.01-.551.146-.725.148-.175.37-.281.669-.318.297-.036.533.013.707.15.186.134.298.356.336.665l.577 4.681 2.251-.277-.391.357 2.85-5.863c.106-.219.244-.375.414-.468a.838.838 0 0 1 .531-.102.806.806 0 0 1 .478.196.644.644 0 0 1 .27.42c.033.177-.002.38-.107.611l-2.663 5.315-.765-.469c.75.005 1.414.195 1.993.572.578.376 1.105.922 1.58 1.637l1.993 3.074c.159.21.226.414.202.61a.825.825 0 0 1-.246.502.912.912 0 0 1-.479.24.88.88 0 0 1-.549-.041c-.189-.062-.35-.199-.486-.412l-1.895-3.014c-.405-.639-.84-1.075-1.304-1.309-.465-.245-1.014-.328-1.645-.251l-1.84.226.584 4.734c.036.298-.012.54-.147.725-.134.186-.356.298-.666.336Zm11.996 1.791c-.286.036-.515-.015-.69-.151-.173-.135-.279-.352-.315-.65l-1.278-10.362c-.037-.297.013-.533.148-.707.136-.174.341-.277.615-.311.286-.035.516.015.69.151.174.136.279.353.316.65l.191 1.555-.243-.351a2.774 2.774 0 0 1 .937-1.675c.511-.462 1.148-.74 1.91-.833.774-.095 1.47.007 2.087.306.63.297 1.14.76 1.532 1.39.404.627.663 1.411.78 2.352.113.917.05 1.741-.185 2.471-.226.717-.602 1.295-1.129 1.734-.527.428-1.184.69-1.97.786-.75.093-1.43-.017-2.036-.33a2.776 2.776 0 0 1-1.313-1.38l.215-.026.537 4.358c.037.298-.019.535-.166.71-.136.174-.347.278-.633.313Zm2.777-4.983c.5-.062.92-.234 1.26-.518.34-.283.583-.67.728-1.159.145-.489.176-1.073.092-1.752-.126-1.024-.448-1.771-.965-2.239-.505-.47-1.133-.659-1.884-.567-.488.06-.908.233-1.26.518-.341.271-.584.652-.73 1.141-.145.489-.175 1.073-.092 1.752.125 1.013.447 1.759.965 2.239.52.481 1.148.676 1.886.585Zm9.472.251a3.726 3.726 0 0 1-1.687-.155 2.903 2.903 0 0 1-1.245-.827 2.416 2.416 0 0 1-.58-1.325c-.08-.643.019-1.169.295-1.577.286-.422.795-.757 1.526-1.004.742-.26 1.756-.469 3.043-.627l.84-.103.136 1.107-.822.101c-.858.105-1.531.23-2.021.375s-.83.332-1.02.561c-.178.215-.247.495-.204.841.056.452.256.803.601 1.05.343.236.79.321 1.337.253.44-.054.815-.203 1.124-.446.307-.255.534-.573.68-.954.159-.382.21-.806.152-1.27l-.253-2.054c-.084-.68-.287-1.15-.61-1.413-.322-.262-.811-.353-1.466-.273a5.41 5.41 0 0 0-1.18.29 5.638 5.638 0 0 0-1.209.638c-.19.12-.36.171-.507.153a.574.574 0 0 1-.368-.19.903.903 0 0 1-.193-.394.994.994 0 0 1 .052-.46.768.768 0 0 1 .371-.372c.493-.314.99-.556 1.488-.727a7.13 7.13 0 0 1 1.428-.338c.797-.098 1.468-.053 2.011.134.555.186.989.52 1.302 1 .313.482.52 1.128.62 1.938l.566 4.591c.035.286-.008.521-.13.705-.124.172-.323.275-.597.309-.262.032-.48-.02-.654-.156-.176-.147-.28-.364-.316-.65l-.143-1.161.16-.02a2.687 2.687 0 0 1-.395 1.209 2.474 2.474 0 0 1-.858.831 3.24 3.24 0 0 1-1.274.41Zm10.86-1.333c-.894.11-1.69.02-2.391-.269a3.972 3.972 0 0 1-1.697-1.405c-.442-.647-.721-1.435-.835-2.364-.086-.69-.06-1.323.074-1.895.134-.585.361-1.09.684-1.517a3.86 3.86 0 0 1 1.267-1.044 4.998 4.998 0 0 1 1.783-.545 4.72 4.72 0 0 1 1.329.036 3.77 3.77 0 0 1 1.36.45.594.594 0 0 1 .33.322.694.694 0 0 1 .07.408.682.682 0 0 1-.151.4.644.644 0 0 1-.335.222.812.812 0 0 1-.48-.068 2.866 2.866 0 0 0-.929-.321 2.832 2.832 0 0 0-.875-.038 2.9 2.9 0 0 0-1.117.355c-.305.17-.555.4-.749.69a2.51 2.51 0 0 0-.401 1.01c-.06.395-.06.836 0 1.325.12.976.441 1.717.963 2.221.532.491 1.22.684 2.066.58.274-.033.555-.11.843-.23.287-.12.561-.299.822-.536.155-.116.305-.171.451-.164a.524.524 0 0 1 .364.154.649.649 0 0 1 .223.336.7.7 0 0 1 .033.413.672.672 0 0 1-.26.394c-.347.321-.74.569-1.178.743a4.917 4.917 0 0 1-1.264.337Zm5.525-.715a.955.955 0 0 1-.478-.05.652.652 0 0 1-.323-.268 1.471 1.471 0 0 1-.158-.543l-.879-7.128c-.035-.286.01-.51.135-.67.124-.172.317-.274.58-.306.261-.033.473.02.635.157.161.126.259.331.294.617l.762 6.181-.464.057 4.044-7.061c.1-.17.22-.324.36-.462.14-.138.341-.223.603-.255a.862.862 0 0 1 .46.052.57.57 0 0 1 .306.271c.089.134.147.314.175.54l.88 7.129c.033.274-.012.497-.136.669-.112.171-.299.273-.56.305-.275.033-.493-.018-.655-.156-.162-.137-.26-.343-.293-.617l-.763-6.18.483-.06-4.06 7.082c-.09.156-.205.303-.345.441-.128.137-.329.222-.603.255Zm10.647-1.434c-.298.037-.534-.013-.708-.149-.175-.147-.28-.364-.316-.65l-.848-6.878c-.037-.298.013-.534.148-.707.135-.186.35-.297.648-.334l3.538-.434c.715-.088 1.31-.07 1.784.053.486.121.858.342 1.115.66.256.308.413.706.474 1.194a1.932 1.932 0 0 1-.398 1.482c-.336.416-.809.697-1.42.845l-.028-.232c.755-.057 1.359.087 1.812.43.466.342.737.822.813 1.442.092.75-.114 1.38-.62 1.889-.506.498-1.278.81-2.314.937l-3.68.452Zm.642-1.258 2.787-.342c.536-.066.933-.229 1.191-.491.269-.274.376-.632.321-1.073-.054-.44-.244-.756-.57-.945-.313-.191-.738-.254-1.274-.188l-2.787.342.332 2.697Zm-.475-3.858 2.626-.323c.488-.06.85-.219 1.084-.477.246-.26.344-.587.296-.98-.05-.405-.225-.698-.526-.878-.288-.183-.676-.244-1.165-.184l-2.626.323.31 2.519Zm11.673 3.826a3.74 3.74 0 0 1-1.687-.156 2.91 2.91 0 0 1-1.245-.826 2.42 2.42 0 0 1-.58-1.326c-.08-.643.019-1.169.295-1.577.286-.422.795-.757 1.527-1.004.741-.26 1.755-.47 3.042-.627l.84-.103.136 1.107-.822.101c-.858.105-1.531.23-2.021.375s-.83.332-1.02.56c-.178.216-.246.496-.204.842.056.452.256.803.601 1.05.344.236.79.32 1.337.253.44-.054.816-.203 1.124-.446.307-.255.534-.573.68-.954a2.46 2.46 0 0 0 .152-1.27l-.253-2.054c-.084-.68-.287-1.15-.61-1.413-.322-.262-.811-.353-1.466-.273a5.409 5.409 0 0 0-1.18.29 5.642 5.642 0 0 0-1.209.638c-.19.12-.36.171-.507.153a.575.575 0 0 1-.368-.19.905.905 0 0 1-.193-.394.994.994 0 0 1 .052-.46.768.768 0 0 1 .371-.372 7.016 7.016 0 0 1 2.916-1.065c.798-.098 1.468-.053 2.011.134.555.186.99.52 1.302 1 .314.482.52 1.128.62 1.938l.566 4.59c.035.287-.008.522-.13.706-.124.172-.323.275-.597.309-.262.032-.48-.02-.654-.155-.175-.148-.28-.365-.316-.65l-.143-1.162.16-.02c-.04.453-.172.856-.394 1.209a2.473 2.473 0 0 1-.86.831 3.24 3.24 0 0 1-1.273.411Zm13.249-1.663c-.273.033-.491-.013-.651-.138-.162-.137-.26-.343-.294-.617l-.302-2.447-1.125.138c-.417.051-.761.202-1.033.453-.271.25-.481.555-.631.912l-.742 1.777c-.104.23-.242.393-.411.486a.777.777 0 0 1-.53.12 1.027 1.027 0 0 1-.497-.211.902.902 0 0 1-.308-.434.93.93 0 0 1 .07-.607l.565-1.303c.15-.357.377-.669.683-.936.316-.28.647-.442.992-.484l.286-.036.022.18c-.989.12-1.785-.011-2.388-.397-.604-.385-.957-.995-1.06-1.828-.066-.536-.005-1.015.185-1.438.2-.435.531-.79.993-1.065.46-.286 1.048-.473 1.763-.56l3.234-.398c.297-.036.534.02.709.167.186.134.298.35.334.648l.87 7.057c.034.274-.017.498-.153.671-.137.162-.33.259-.581.29Zm-3.507-4.176 2.108-.26-.379-3.072-2.108.26c-.655.08-1.12.276-1.396.588-.278.3-.387.688-.328 1.164.06.489.262.85.605 1.087.344.236.843.313 1.498.233Zm13.078 6.265c-.286.035-.516-.016-.69-.151-.174-.136-.279-.353-.316-.651l-1.277-10.361c-.037-.298.013-.534.148-.708.136-.173.341-.277.615-.31.286-.036.516.014.69.15.173.136.279.353.315.65l.192 1.555-.243-.351a2.782 2.782 0 0 1 .936-1.675c.512-.462 1.149-.74 1.911-.833.774-.095 1.47.007 2.087.306.629.298 1.14.76 1.532 1.39.403.627.663 1.411.779 2.352.113.917.052 1.741-.185 2.471-.226.717-.602 1.295-1.128 1.735-.528.427-1.184.69-1.97.786-.751.092-1.429-.018-2.036-.33a2.776 2.776 0 0 1-1.313-1.381l.214-.026.538 4.359c.037.297-.019.534-.167.709-.135.174-.346.279-.632.314Zm2.777-4.984c.5-.061.92-.234 1.26-.517.34-.284.583-.67.728-1.16.145-.489.176-1.073.092-1.752-.126-1.024-.448-1.77-.965-2.239-.506-.47-1.133-.659-1.884-.567-.488.06-.908.233-1.26.518-.341.271-.584.652-.73 1.141-.145.49-.176 1.074-.092 1.752.125 1.013.447 1.76.965 2.24.519.48 1.148.675 1.886.584Zm10.776.092c-.952.116-1.796.039-2.531-.234a4.022 4.022 0 0 1-1.782-1.359c-.453-.633-.737-1.415-.851-2.344-.112-.905-.025-1.72.261-2.444a4.09 4.09 0 0 1 1.322-1.776c.596-.46 1.305-.74 2.127-.841.608-.075 1.162-.04 1.663.104.5.132.941.368 1.321.708.391.327.703.748.936 1.263.244.514.408 1.105.49 1.772.025.202-.015.365-.121.486-.108.11-.28.18-.519.209l-6.002.737-.137-1.108 5.503-.675-.273.287c-.074-.595-.225-1.09-.455-1.485a1.936 1.936 0 0 0-.885-.853c-.362-.185-.793-.247-1.293-.186-.56.069-1.02.258-1.381.569a2.51 2.51 0 0 0-.741 1.197c-.145.49-.179 1.044-.103 1.663l.013.107c.129 1.048.471 1.81 1.026 2.286.565.463 1.317.636 2.258.52a4.795 4.795 0 0 0 1.108-.28 3.725 3.725 0 0 0 1.084-.623c.188-.144.36-.22.516-.227a.598.598 0 0 1 .413.113.603.603 0 0 1 .241.333.76.76 0 0 1-.017.456 1.056 1.056 0 0 1-.326.439c-.371.323-.816.59-1.335.798a6.566 6.566 0 0 1-1.53.388Zm12.124-1.525c-.298.036-.534-.02-.71-.167-.175-.148-.282-.377-.32-.686l-.311-2.52a4.396 4.396 0 0 1-.985.539c-.346.14-.721.234-1.126.283-1.262.155-2.235-.034-2.917-.566-.682-.533-1.1-1.419-1.253-2.658l-.178-1.447c-.037-.297.013-.533.148-.707.136-.174.347-.278.633-.313.286-.035.516.015.689.15.186.135.298.351.334.649l.161 1.304c.101.822.342 1.397.721 1.725.391.327.979.442 1.765.345a3.81 3.81 0 0 0 1.003-.25c.286-.132.554-.31.805-.534l-.377-3.055c-.078-.63.187-.984.794-1.058.298-.037.529.02.692.169.174.135.28.358.319.668l.87 7.056c.038.31-.004.557-.127.741-.122.185-.332.295-.63.332Zm4.478-.677c-.297.036-.533-.013-.707-.15-.175-.147-.281-.364-.316-.65l-.866-7.02c-.038-.31.012-.546.149-.708.147-.175.364-.28.65-.315.286-.035.516.015.69.15.172.125.277.342.316.651l.275 2.233 2.483-.305c1.12-.137 2.002.002 2.646.42.642.404 1.02 1.065 1.133 1.982.072.583-.002 1.112-.222 1.587-.221.462-.573.844-1.056 1.145-.484.289-1.083.477-1.798.565l-3.377.415Zm.742-1.343 2.251-.276c.619-.076 1.085-.266 1.399-.57.311-.317.432-.755.363-1.315-.067-.548-.289-.925-.665-1.133-.378-.22-.877-.291-1.496-.215l-2.251.276.399 3.233Zm11.383-4.408a.65.65 0 0 1-.467-.106.604.604 0 0 1-.211-.39.502.502 0 0 1 .112-.413.65.65 0 0 1 .427-.216l16.919-2.078c.167-.02.31.017.431.11a.48.48 0 0 1 .227.372.57.57 0 0 1-.128.433.56.56 0 0 1-.391.21l-16.919 2.078ZM32.296 133.898a.815.815 0 0 1-.558-.113.66.66 0 0 1-.288-.418 1.39 1.39 0 0 1 .035-.603l.877-2.882.095.768-4.299-7.361a1.25 1.25 0 0 1-.164-.596c0-.194.071-.354.213-.48.14-.138.341-.223.603-.255.226-.028.412.004.556.095.144.091.286.261.425.51l3.52 6.332-.5.061 1.911-6.999c.074-.287.176-.487.307-.6.13-.124.32-.202.57-.233.214-.026.389.013.522.117.145.092.24.231.288.419.057.174.052.374-.017.6l-3.2 10.821c-.085.288-.2.49-.342.604-.132.113-.316.184-.555.213Zm10.763-4.55c-.893.11-1.69.021-2.39-.268a3.974 3.974 0 0 1-1.698-1.406c-.442-.647-.72-1.435-.835-2.364-.085-.69-.06-1.322.075-1.895.133-.585.36-1.09.683-1.517a3.865 3.865 0 0 1 1.268-1.044 5.013 5.013 0 0 1 1.782-.545 4.75 4.75 0 0 1 1.329.036c.479.062.933.212 1.361.45a.592.592 0 0 1 .33.322.693.693 0 0 1 .069.409.683.683 0 0 1-.15.399.64.64 0 0 1-.336.222.807.807 0 0 1-.48-.068 2.876 2.876 0 0 0-.928-.321 2.811 2.811 0 0 0-.875-.037c-.43.052-.802.17-1.117.354a2.154 2.154 0 0 0-.75.691 2.503 2.503 0 0 0-.4 1.01 4.799 4.799 0 0 0 0 1.324c.12.977.44 1.717.962 2.221.532.491 1.221.685 2.067.581.274-.034.554-.111.842-.231a2.85 2.85 0 0 0 .822-.536c.155-.116.306-.17.452-.164a.525.525 0 0 1 .363.155.641.641 0 0 1 .223.335.7.7 0 0 1 .033.413.677.677 0 0 1-.26.395 3.81 3.81 0 0 1-1.178.743 4.956 4.956 0 0 1-1.264.336Zm5.597-.723c-.286.035-.522-.015-.708-.149-.175-.148-.28-.364-.316-.65l-.852-6.914c-.04-.321.013-.582.157-.781.157-.201.402-.321.736-.362l5.86-.72c.321-.039.582.019.783.176.2.157.32.396.36.717l.853 6.914c.035.286-.02.522-.166.71-.136.174-.347.278-.633.313-.297.037-.533-.013-.707-.149-.164-.149-.263-.366-.298-.652l-.8-6.485-4.288.526.8 6.485c.035.286-.014.522-.149.708-.124.172-.334.276-.632.313Zm13.793-1.657c-.953.117-1.797.039-2.532-.234a4.013 4.013 0 0 1-1.782-1.359c-.453-.633-.736-1.414-.85-2.343-.112-.905-.025-1.72.26-2.444a4.097 4.097 0 0 1 1.322-1.777c.597-.46 1.306-.74 2.128-.841.607-.075 1.161-.04 1.663.104.5.132.94.368 1.32.708.391.327.703.748.936 1.264.245.514.408 1.104.49 1.771.026.203-.015.365-.12.486-.108.11-.281.18-.52.209l-6.002.737-.137-1.107 5.503-.676-.273.287c-.073-.595-.225-1.09-.455-1.485-.218-.397-.513-.681-.885-.853-.361-.185-.792-.247-1.293-.186-.56.069-1.02.259-1.38.569a2.516 2.516 0 0 0-.742 1.197c-.145.49-.18 1.044-.103 1.663l.014.107c.129 1.048.47 1.81 1.025 2.286.565.463 1.318.637 2.259.521a4.847 4.847 0 0 0 1.108-.281 3.743 3.743 0 0 0 1.084-.623c.187-.144.36-.219.516-.226a.6.6 0 0 1 .413.112.6.6 0 0 1 .24.333.763.763 0 0 1-.016.456 1.07 1.07 0 0 1-.327.439 4.65 4.65 0 0 1-1.334.798c-.52.197-1.03.326-1.53.388Zm6.57-.97c-.298.036-.534-.013-.708-.149-.175-.148-.28-.365-.316-.65l-.866-7.021c-.038-.31.006-.545.131-.705.136-.174.34-.278.615-.312.274-.033.492.019.654.156.172.124.277.34.316.65l.801 6.503 3.341-.41-.801-6.503c-.039-.31.005-.545.13-.705.136-.174.34-.278.615-.311.285-.036.51.016.672.153.16.125.26.343.298.652l.801 6.503 3.341-.41-.802-6.503c-.038-.31.006-.545.131-.705.136-.174.34-.278.615-.311.285-.035.51.016.672.153.16.125.26.343.298.653l.865 7.02c.036.286-.014.522-.148.708-.136.174-.353.279-.65.315l-10.005 1.229Zm14.566-1.662c-.286.035-.522-.014-.708-.149-.175-.147-.28-.364-.316-.65l-.88-7.146c-.039-.31.01-.545.148-.707.148-.176.364-.281.65-.316.286-.035.516.015.69.151.172.124.278.341.316.651l.337 2.733 4.341-.533-.337-2.734c-.038-.309.006-.544.13-.705.137-.174.353-.279.651-.315.286-.035.516.015.69.151.184.122.295.338.334.648l.88 7.146c.036.286-.02.522-.166.709-.135.174-.346.279-.632.314-.298.036-.534-.013-.708-.149-.163-.149-.262-.367-.298-.653l-.368-2.983-4.341.533.368 2.983c.035.286-.014.522-.149.708-.123.172-.334.277-.632.313Zm10.627-1.432c-.297.037-.533-.013-.707-.149-.176-.147-.281-.364-.316-.65l-.866-7.021c-.038-.309.011-.545.149-.707.147-.175.364-.281.65-.316.286-.035.516.016.69.151.172.124.277.341.316.651l.275 2.233 2.483-.305c1.12-.138 2.002.002 2.645.419.643.404 1.02 1.065 1.133 1.982.072.584-.001 1.113-.221 1.587-.221.463-.573.844-1.056 1.145-.484.29-1.084.478-1.798.566l-3.377.414Zm.742-1.342 2.25-.276c.62-.076 1.086-.267 1.4-.571.311-.316.432-.754.363-1.314-.067-.548-.29-.926-.665-1.134-.378-.219-.877-.291-1.496-.215l-2.251.277.399 3.233Zm8.153.377c-.286.035-.516-.015-.69-.151-.175-.148-.28-.364-.316-.65l-.881-7.146c-.038-.31.012-.546.149-.707.136-.174.346-.279.632-.314.286-.035.516.015.69.151.184.123.295.339.334.648l.881 7.146c.075.608-.192.949-.799 1.023Zm4.466-.548a.968.968 0 0 1-.478-.05.655.655 0 0 1-.323-.269 1.47 1.47 0 0 1-.158-.543l-.879-7.128c-.035-.286.01-.509.136-.669.123-.173.316-.275.578-.307.262-.032.474.02.636.158.161.125.259.331.294.616l.762 6.182-.464.057 4.044-7.062c.1-.169.22-.323.36-.461.14-.138.341-.223.604-.256a.857.857 0 0 1 .459.053.568.568 0 0 1 .306.271c.089.134.147.314.175.54l.879 7.128c.034.274-.011.497-.135.67-.112.171-.299.272-.561.304-.274.034-.492-.018-.654-.155-.162-.137-.26-.343-.293-.617l-.763-6.181.483-.059-4.06 7.081c-.09.156-.205.303-.345.441-.128.137-.329.222-.603.256Zm1.882-10.332a3.604 3.604 0 0 1-1.9-.257c-.577-.268-1.024-.708-1.342-1.322-.096-.194-.128-.353-.095-.478a.552.552 0 0 1 .286-.325.54.54 0 0 1 .413-.033c.127.045.249.157.368.336.254.392.555.675.903.85.36.173.772.232 1.237.174.464-.057.844-.212 1.139-.466.307-.255.536-.604.687-1.045.072-.203.164-.341.276-.415a.54.54 0 0 1 .408-.068c.163.04.276.123.339.248.075.112.083.274.024.487-.206.678-.545 1.215-1.016 1.612-.473.384-1.048.618-1.727.702Zm13.887 11.66c-.286.035-.516-.015-.69-.151-.173-.136-.279-.353-.316-.65l-1.277-10.362c-.037-.298.013-.534.148-.707.136-.174.341-.278.615-.312.286-.035.516.016.69.152.174.135.279.352.316.65l.191 1.554-.243-.351a2.782 2.782 0 0 1 .937-1.675c.511-.461 1.148-.739 1.91-.833.774-.095 1.47.007 2.087.306.629.298 1.14.761 1.532 1.39.403.628.663 1.412.779 2.353.113.917.052 1.74-.185 2.471-.226.716-.602 1.295-1.128 1.734-.527.427-1.184.689-1.97.786-.751.092-1.429-.018-2.036-.33a2.78 2.78 0 0 1-1.313-1.381l.214-.026.538 4.359c.037.298-.019.534-.166.71-.136.173-.347.278-.633.313Zm2.777-4.984c.5-.061.92-.234 1.26-.517.34-.284.583-.67.728-1.159.145-.49.176-1.074.092-1.753-.126-1.024-.448-1.77-.965-2.239-.505-.47-1.133-.659-1.884-.566-.488.06-.908.232-1.26.517-.341.272-.584.652-.73 1.141-.145.49-.176 1.074-.092 1.753.125 1.012.447 1.758.965 2.239.519.48 1.148.675 1.886.584Zm10.776.092c-.952.117-1.796.039-2.531-.233a4.03 4.03 0 0 1-1.782-1.359c-.453-.634-.737-1.415-.851-2.344-.112-.905-.025-1.72.261-2.444a4.093 4.093 0 0 1 1.322-1.777c.596-.46 1.305-.74 2.127-.841.608-.075 1.162-.04 1.664.104.499.132.94.368 1.32.708.391.327.703.748.936 1.264.245.514.408 1.104.49 1.771.025.203-.015.365-.121.487-.107.109-.28.179-.518.208l-6.003.737-.137-1.107 5.503-.676-.273.287c-.074-.595-.225-1.09-.455-1.485-.219-.396-.514-.681-.885-.853-.362-.185-.793-.247-1.293-.185-.56.068-1.02.258-1.381.568a2.527 2.527 0 0 0-.741 1.197c-.145.49-.179 1.044-.103 1.663l.013.107c.13 1.049.471 1.811 1.026 2.287.565.462 1.318.636 2.258.52a4.784 4.784 0 0 0 1.108-.281 3.728 3.728 0 0 0 1.084-.623c.188-.144.36-.219.516-.226a.599.599 0 0 1 .413.112.602.602 0 0 1 .241.333.77.77 0 0 1-.016.456 1.072 1.072 0 0 1-.327.439c-.371.323-.816.59-1.334.798-.52.197-1.03.326-1.531.388Zm9.538-1.171c-.893.109-1.69.02-2.391-.269-.702-.301-1.277-.798-1.725-1.493-.438-.708-.725-1.609-.86-2.705l-.163-1.322c-.144-1.167-.103-2.158.123-2.971a4.455 4.455 0 0 1 1.25-2.076c.595-.569 1.365-1.038 2.311-1.408l2.402-.966c.241-.102.457-.117.647-.043.191.073.33.225.419.456.079.244.063.458-.048.641-.098.181-.274.323-.527.427l-2.579 1.006c-.6.231-1.088.538-1.464.923-.376.385-.64.834-.795 1.349-.154.515-.192 1.088-.114 1.719l.101.822-.268.032a3.796 3.796 0 0 1 .476-1.436 3.18 3.18 0 0 1 1.031-1.052c.437-.283.953-.461 1.548-.534.739-.091 1.41.008 2.014.296.615.288 1.124.739 1.527 1.354.401.604.656 1.353.766 2.246.113.917.032 1.731-.243 2.442a3.79 3.79 0 0 1-1.273 1.734c-.586.446-1.307.722-2.165.828Zm-.243-1.385c.524-.064.957-.232 1.298-.504.34-.283.577-.663.712-1.139.147-.478.18-1.038.101-1.681-.119-.965-.431-1.682-.936-2.152-.507-.482-1.148-.675-1.922-.58-.512.063-.938.236-1.278.52-.34.283-.585.652-.734 1.105-.138.452-.169.982-.094 1.59.126 1.024.437 1.778.931 2.261.507.482 1.148.675 1.922.58Zm10.804.088c-.952.117-1.796.039-2.531-.233a4.03 4.03 0 0 1-1.782-1.359c-.453-.634-.736-1.415-.851-2.344-.112-.905-.025-1.72.261-2.444a4.09 4.09 0 0 1 1.322-1.776c.597-.461 1.306-.741 2.127-.842.608-.075 1.162-.04 1.664.104.5.132.94.368 1.32.708.391.327.703.748.936 1.264.245.514.408 1.104.49 1.771.025.203-.015.365-.121.487-.107.11-.28.179-.518.208l-6.003.738-.137-1.108 5.503-.676-.273.288c-.074-.596-.225-1.091-.455-1.486-.218-.396-.513-.68-.885-.852-.362-.186-.793-.248-1.293-.186-.56.068-1.02.258-1.381.568a2.527 2.527 0 0 0-.741 1.197c-.145.49-.179 1.044-.103 1.663l.013.108c.13 1.048.471 1.81 1.026 2.286.565.462 1.318.636 2.259.52a4.79 4.79 0 0 0 1.107-.281 3.705 3.705 0 0 0 1.084-.623c.188-.144.36-.219.517-.226a.598.598 0 0 1 .412.112.6.6 0 0 1 .241.334.766.766 0 0 1-.016.455 1.065 1.065 0 0 1-.327.439c-.371.324-.816.59-1.334.799-.52.196-1.03.325-1.531.387Zm6.586-.845c-.286.035-.522-.014-.708-.149-.175-.148-.28-.364-.316-.65l-.881-7.146c-.038-.31.012-.545.149-.707.147-.176.364-.281.65-.316.286-.035.516.015.69.151.172.124.278.341.316.65l.337 2.734 4.341-.533-.337-2.734c-.038-.309.005-.544.131-.705.136-.174.352-.279.65-.315.286-.036.516.015.69.151.184.122.295.338.334.648l.881 7.146c.035.285-.021.522-.167.709-.135.174-.346.279-.632.314-.298.036-.534-.013-.708-.149-.163-.149-.263-.367-.298-.653l-.368-2.983-4.341.533.368 2.983c.035.286-.014.522-.149.708-.124.172-.334.276-.632.313Zm13.541-1.626c-.881.108-1.666.017-2.355-.273a3.897 3.897 0 0 1-1.677-1.39c-.441-.635-.718-1.411-.831-2.328-.086-.703-.062-1.341.073-1.914a4.16 4.16 0 0 1 .683-1.516 3.669 3.669 0 0 1 1.246-1.078 4.818 4.818 0 0 1 1.747-.541c.869-.107 1.642-.014 2.319.278a3.85 3.85 0 0 1 1.695 1.387c.439.623.716 1.399.831 2.328.085.691.061 1.329-.073 1.913a3.97 3.97 0 0 1-.699 1.537 3.76 3.76 0 0 1-1.245 1.078 4.859 4.859 0 0 1-1.714.519Zm-.172-1.394c.489-.06.903-.232 1.243-.515.34-.284.582-.67.727-1.159.157-.491.194-1.076.11-1.755-.126-1.024-.448-1.77-.965-2.239-.517-.468-1.145-.657-1.883-.567-.501.062-.921.234-1.26.518-.342.271-.591.653-.748 1.143-.145.49-.176 1.074-.092 1.753.124 1.012.446 1.758.965 2.239.519.48 1.153.674 1.903.582Zm7.585.447c-.286.035-.522-.014-.708-.149-.175-.147-.28-.364-.316-.65l-.876-7.11c-.037-.298.012-.534.148-.708.148-.175.365-.28.65-.315.286-.035.516.015.69.151.174.136.279.353.316.65l.335 2.716 1.465-.18 2.069-3.519c.107-.206.242-.344.402-.412a.903.903 0 0 1 .501-.061c.172.027.314.1.426.22a.647.647 0 0 1 .216.427c.02.166-.023.353-.131.56l-1.959 3.378-.517-.517c.338-.006.64.042.906.142.266.101.523.269.769.504.259.235.54.551.843.949l1.426 1.856c.132.189.191.375.177.558a.707.707 0 0 1-.179.458.901.901 0 0 1-.422.251.89.89 0 0 1-.525.01c-.176-.051-.335-.17-.48-.358l-1.579-2.073a3.238 3.238 0 0 0-.622-.631 1.238 1.238 0 0 0-.598-.289 2.344 2.344 0 0 0-.781-.013l-1.233.151.368 2.983c.035.286-.014.522-.149.708-.135.174-.346.278-.632.313Zm9.107-4.691c-.191.024-.347-.017-.469-.123-.11-.108-.19-.267-.24-.479l-1.35-7.414c-.068-.355-.026-.65.126-.886.153-.237.413-.378.783-.423.345-.042.62.033.825.225.205.193.312.47.321.831l.492 7.52c.014.216-.025.39-.117.523a.48.48 0 0 1-.371.226Zm.427 3.466c-.346.043-.639-.03-.879-.218-.241-.188-.382-.449-.423-.783-.041-.333.033-.614.222-.843.188-.241.455-.382.8-.425.346-.042.633.032.862.221.227.178.361.433.402.767.042.333-.026.619-.202.859-.176.239-.437.38-.782.422ZM38.276 152.101c-1.274.156-2.396.028-3.366-.385a5.305 5.305 0 0 1-2.366-1.976c-.597-.918-.977-2.038-1.14-3.36-.122-.989-.094-1.893.083-2.713.176-.831.485-1.558.928-2.181a5.148 5.148 0 0 1 1.75-1.539c.726-.391 1.566-.645 2.519-.762a7.083 7.083 0 0 1 2.053.038c.68.11 1.279.314 1.8.613a.904.904 0 0 1 .452.434.8.8 0 0 1 .1.514.85.85 0 0 1-.18.457.749.749 0 0 1-.443.236c-.177.034-.381-.008-.613-.124a4.1 4.1 0 0 0-1.386-.501 5.193 5.193 0 0 0-1.527-.03c-.905.111-1.644.395-2.217.852-.573.445-.977 1.045-1.21 1.799-.234.754-.288 1.643-.161 2.668.126 1.024.395 1.879.806 2.566.41.676.948 1.166 1.614 1.471.665.293 1.45.384 2.355.273a5.236 5.236 0 0 0 1.474-.399c.47-.215.9-.497 1.292-.848.199-.157.382-.24.55-.248a.72.72 0 0 1 .752.506.81.81 0 0 1 .043.502c-.027.173-.122.329-.286.471a5.13 5.13 0 0 1-1.623 1.106 7.213 7.213 0 0 1-2.053.56Zm11.938-1.502c-.286.035-.521-.015-.707-.149-.176-.148-.281-.365-.316-.65l-.882-7.146c-.038-.31.012-.546.15-.708.147-.175.363-.28.65-.315.285-.035.515.015.689.151.172.124.278.341.316.65l.337 2.733 4.341-.533-.337-2.733c-.038-.31.006-.545.131-.705.136-.174.353-.279.65-.316.286-.035.516.016.69.151.184.123.296.339.334.649l.881 7.145c.035.286-.02.523-.166.71-.136.174-.347.278-.633.313-.298.037-.533-.013-.707-.148-.164-.15-.263-.367-.298-.653l-.368-2.983-4.342.533.368 2.983c.035.286-.014.522-.148.707-.124.173-.335.277-.633.314Zm12.541-1.504a3.726 3.726 0 0 1-1.688-.155 2.903 2.903 0 0 1-1.244-.827 2.416 2.416 0 0 1-.58-1.325c-.08-.643.018-1.169.294-1.578.287-.422.796-.756 1.527-1.003.742-.26 1.756-.47 3.042-.628l.84-.103.136 1.108-.821.101c-.858.105-1.532.23-2.022.375-.49.145-.83.332-1.019.56-.179.216-.247.496-.204.842.056.452.256.802.6 1.05.344.236.79.32 1.338.253.44-.054.815-.203 1.124-.446.307-.255.534-.573.68-.954.158-.382.209-.806.152-1.27l-.254-2.055c-.083-.678-.286-1.149-.609-1.412-.323-.262-.811-.354-1.466-.273a5.394 5.394 0 0 0-1.18.29 5.615 5.615 0 0 0-1.209.638c-.19.12-.36.171-.507.153a.574.574 0 0 1-.368-.191.906.906 0 0 1-.194-.393.994.994 0 0 1 .053-.46.769.769 0 0 1 .37-.372 7.093 7.093 0 0 1 2.916-1.065c.798-.098 1.469-.054 2.012.134.555.185.989.519 1.302 1 .313.482.52 1.127.62 1.937l.566 4.592c.035.285-.008.52-.13.705-.125.172-.323.275-.597.309-.263.032-.48-.02-.654-.156-.176-.147-.281-.364-.316-.65l-.144-1.161.161-.02c-.04.452-.172.855-.395 1.209a2.482 2.482 0 0 1-.859.831c-.36.214-.785.35-1.273.41Zm7.8-.994c-.262.032-.473-.014-.634-.14-.15-.138-.242-.345-.276-.619l-.88-7.145a1.354 1.354 0 0 1 .025-.529.657.657 0 0 1 .228-.355.796.796 0 0 1 .449-.182c.179-.022.331-.01.458.034.126.045.237.11.332.195.095.085.18.184.254.296l3.475 4.651 2.224-5.351c.056-.14.12-.263.19-.368a.793.793 0 0 1 .278-.252.965.965 0 0 1 .418-.142c.274-.033.486.025.638.176.163.149.264.378.303.688l.88 7.146c.034.274-.01.497-.134.669-.114.159-.302.255-.564.287-.25.031-.455-.016-.616-.142-.15-.139-.242-.345-.275-.619l-.727-5.895.41-.051-2.219 5.242a1.078 1.078 0 0 1-.197.314.584.584 0 0 1-.377.174c-.179.022-.321-.003-.427-.075a2.33 2.33 0 0 1-.25-.259l-3.444-4.547.411-.05.727 5.895c.034.274-.01.497-.135.67-.113.159-.295.254-.545.284Zm12.022-1.476a.967.967 0 0 1-.478-.05.649.649 0 0 1-.323-.269 1.46 1.46 0 0 1-.158-.542l-.879-7.128c-.035-.286.01-.509.135-.67.124-.172.317-.275.58-.307.261-.032.473.021.635.158.16.125.259.331.294.617l.762 6.181-.464.057 4.044-7.062c.1-.169.22-.323.36-.461.14-.138.341-.223.603-.255a.86.86 0 0 1 .46.052.57.57 0 0 1 .306.271c.089.134.147.314.175.541l.88 7.128c.033.273-.012.497-.136.669-.112.171-.299.272-.56.305-.275.033-.493-.019-.655-.156-.162-.137-.26-.343-.294-.617l-.762-6.181.483-.059-4.06 7.081a2.06 2.06 0 0 1-.345.442c-.128.136-.33.222-.603.255Zm14.466-6.002a.732.732 0 0 1-.562-.148.71.71 0 0 1-.278-.492.673.673 0 0 1 .15-.544.729.729 0 0 1 .51-.28l3.93-.483a.71.71 0 0 1 .545.151.675.675 0 0 1 .278.491.71.71 0 0 1-.151.545.712.712 0 0 1-.491.278l-3.93.482Zm16.175 2.276c-.881.108-1.666.017-2.355-.273a3.89 3.89 0 0 1-1.677-1.39c-.441-.635-.718-1.411-.831-2.328-.087-.703-.062-1.34.073-1.913a4.131 4.131 0 0 1 .683-1.517 3.657 3.657 0 0 1 1.246-1.077 4.774 4.774 0 0 1 1.746-.541c.87-.107 1.643-.015 2.32.277a3.85 3.85 0 0 1 1.694 1.388c.44.623.717 1.399.832 2.328.085.691.061 1.328-.073 1.913a3.97 3.97 0 0 1-.699 1.537 3.784 3.784 0 0 1-1.245 1.078c-.5.266-1.071.439-1.714.518Zm-.172-1.393c.489-.06.903-.232 1.243-.515.339-.284.582-.67.727-1.16.157-.491.194-1.075.11-1.754-.126-1.025-.448-1.771-.965-2.239-.517-.469-1.145-.658-1.883-.567-.501.061-.921.234-1.261.517-.341.272-.59.653-.747 1.144-.146.489-.176 1.073-.093 1.752.125 1.013.447 1.759.966 2.239.518.481 1.153.675 1.903.583Zm9.407.223c-.286.035-.522-.015-.708-.149-.175-.148-.28-.364-.315-.65l-.8-6.485-2.43.298c-.524.065-.816-.147-.876-.636a.67.67 0 0 1 .15-.544c.127-.149.309-.238.548-.267l6.664-.818c.524-.064.815.142.874.618.029.238-.019.432-.146.58-.117.135-.3.218-.55.249l-2.43.298.8 6.485c.035.286-.014.522-.149.708-.123.172-.334.276-.632.313Zm11.054-1.357c-.286.035-.522-.015-.708-.149-.175-.148-.281-.365-.316-.65l-.877-7.111c-.036-.297.013-.533.149-.707.148-.175.364-.28.65-.316.286-.035.516.016.69.152.174.135.279.352.316.65l.335 2.715 1.465-.18 2.069-3.518c.107-.207.241-.344.402-.412.173-.07.34-.09.5-.062a.727.727 0 0 1 .427.22.65.65 0 0 1 .215.427c.021.167-.022.354-.13.56l-1.959 3.378-.517-.517c.337-.005.64.043.906.143.266.1.523.268.769.504.259.234.54.55.843.948l1.426 1.856c.132.19.191.376.177.559a.703.703 0 0 1-.179.457.9.9 0 0 1-.423.251.879.879 0 0 1-.524.011c-.176-.051-.336-.171-.48-.359l-1.579-2.073a3.295 3.295 0 0 0-.622-.631 1.247 1.247 0 0 0-.598-.289 2.377 2.377 0 0 0-.782-.013l-1.232.152.368 2.983c.035.286-.015.522-.149.707-.136.174-.346.279-.632.314Zm11.564-1.384a3.727 3.727 0 0 1-1.688-.155 2.905 2.905 0 0 1-1.245-.827 2.414 2.414 0 0 1-.58-1.325c-.08-.643.019-1.169.295-1.578.286-.422.795-.756 1.527-1.003.741-.26 1.755-.47 3.042-.628l.839-.103.137 1.108-.822.101c-.857.105-1.531.23-2.021.375s-.83.332-1.019.56c-.179.216-.247.496-.205.842.056.452.256.802.601 1.05.344.236.789.32 1.337.253a2.209 2.209 0 0 0 1.124-.446 2.29 2.29 0 0 0 .68-.954c.159-.382.209-.806.152-1.27l-.253-2.055c-.084-.678-.287-1.149-.61-1.412-.322-.263-.811-.354-1.466-.273a5.39 5.39 0 0 0-1.179.29 5.578 5.578 0 0 0-1.209.638c-.191.12-.36.171-.508.153a.574.574 0 0 1-.368-.191.905.905 0 0 1-.193-.393.994.994 0 0 1 .052-.46.768.768 0 0 1 .371-.372 7.095 7.095 0 0 1 2.916-1.065c.798-.098 1.468-.054 2.011.134.555.185.989.519 1.302 1 .314.482.52 1.127.62 1.937l.566 4.592c.036.285-.008.52-.13.705-.124.172-.323.275-.597.309-.262.032-.48-.02-.654-.156-.175-.147-.281-.364-.316-.65l-.143-1.161.161-.02a2.7 2.7 0 0 1-.395 1.209c-.212.34-.499.617-.859.831a3.26 3.26 0 0 1-1.273.41Zm10.859-1.333c-.893.11-1.69.02-2.391-.269-.702-.3-1.277-.798-1.726-1.493-.438-.708-.724-1.609-.859-2.705l-.163-1.322c-.144-1.167-.103-2.158.123-2.971a4.462 4.462 0 0 1 1.249-2.076c.595-.569 1.366-1.038 2.312-1.408l2.401-.966c.242-.102.458-.117.648-.043.19.073.33.225.419.456.078.244.062.458-.048.641-.099.181-.274.324-.528.427l-2.578 1.006c-.6.231-1.088.539-1.464.923a3.231 3.231 0 0 0-.795 1.349c-.154.515-.192 1.088-.114 1.719l.101.822-.268.033a3.783 3.783 0 0 1 .476-1.437 3.18 3.18 0 0 1 1.031-1.052c.436-.283.952-.461 1.548-.534.738-.091 1.41.008 2.013.297.616.287 1.125.738 1.528 1.354.401.603.656 1.352.766 2.245.113.917.032 1.731-.243 2.442a3.79 3.79 0 0 1-1.273 1.734c-.586.447-1.308.723-2.165.828Zm-.243-1.385c.524-.064.956-.232 1.298-.504.34-.283.577-.663.712-1.139.146-.477.18-1.038.101-1.681-.119-.965-.431-1.682-.937-2.152-.507-.482-1.147-.675-1.921-.58-.512.063-.938.236-1.278.52-.34.283-.585.652-.734 1.105-.138.453-.169.982-.095 1.59.127 1.024.437 1.778.932 2.261.507.482 1.147.675 1.922.58Zm7.53.454a.964.964 0 0 1-.477-.05.653.653 0 0 1-.324-.269 1.478 1.478 0 0 1-.157-.543l-.879-7.128c-.035-.286.01-.509.135-.669.124-.173.317-.275.579-.307.262-.032.474.02.636.158.16.125.258.331.293.616l.763 6.182-.465.057 4.044-7.062c.1-.169.22-.323.361-.461.14-.138.341-.224.603-.256a.86.86 0 0 1 .46.053.572.572 0 0 1 .305.27c.089.135.148.315.176.541l.879 7.128c.033.274-.012.497-.136.67-.111.17-.298.272-.56.304-.274.034-.492-.018-.654-.155-.162-.138-.26-.343-.294-.617l-.762-6.181.482-.059-4.06 7.081a2.042 2.042 0 0 1-.344.441c-.129.137-.33.222-.604.256Zm10.662-1.309c-.286.035-.521-.015-.707-.149-.176-.148-.281-.365-.316-.651l-.881-7.145c-.039-.31.011-.546.148-.708.148-.175.365-.28.65-.315.286-.036.516.015.69.151.173.124.278.34.316.65l.337 2.733 4.341-.533-.337-2.733c-.038-.31.006-.545.131-.705.136-.174.353-.279.65-.316.286-.035.516.015.69.151.184.123.296.339.334.648l.881 7.146c.035.286-.02.523-.166.71-.136.174-.347.278-.633.313-.298.037-.533-.013-.707-.149-.164-.149-.263-.366-.298-.652l-.368-2.984-4.342.533.368 2.984c.035.286-.014.522-.148.707-.124.173-.335.277-.633.314Zm13.845-1.664c-.952.117-1.796.039-2.531-.233a4.024 4.024 0 0 1-1.782-1.359c-.453-.634-.737-1.415-.851-2.344-.112-.905-.025-1.72.261-2.444a4.09 4.09 0 0 1 1.322-1.776c.596-.46 1.305-.741 2.127-.842.608-.074 1.162-.04 1.663.104.5.132.941.368 1.321.709.391.326.703.747.936 1.263.245.514.408 1.104.49 1.771.025.203-.015.365-.121.487-.108.11-.28.179-.518.208l-6.003.738-.137-1.108 5.503-.676-.273.288c-.074-.596-.225-1.091-.455-1.486-.219-.396-.514-.68-.885-.852-.362-.186-.793-.248-1.293-.186-.56.068-1.02.258-1.381.568a2.512 2.512 0 0 0-.741 1.197c-.145.49-.179 1.044-.103 1.663l.013.108c.129 1.048.471 1.81 1.026 2.286.565.462 1.317.636 2.258.52a4.784 4.784 0 0 0 1.108-.281 3.705 3.705 0 0 0 1.084-.623c.188-.143.36-.219.516-.226a.599.599 0 0 1 .413.112.608.608 0 0 1 .241.334.759.759 0 0 1-.017.455 1.053 1.053 0 0 1-.326.439c-.371.324-.816.59-1.335.799a6.585 6.585 0 0 1-1.53.387Zm8.408-1.069c-.286.035-.522-.014-.707-.149-.176-.147-.281-.364-.316-.65l-.8-6.485-2.43.299c-.524.064-.816-.148-.876-.636a.676.676 0 0 1 .15-.545c.127-.148.31-.237.548-.266l6.664-.819c.524-.064.815.142.874.618.029.239-.019.432-.146.581-.116.135-.3.218-.55.248l-2.43.299.8 6.485c.035.285-.014.521-.148.707-.124.172-.335.277-.633.313Zm8.241-.975c-.607.074-1.17.023-1.687-.156a2.903 2.903 0 0 1-1.245-.826 2.425 2.425 0 0 1-.581-1.325c-.079-.643.02-1.169.296-1.578.286-.422.795-.757 1.526-1.004.742-.26 1.756-.469 3.042-.627l.84-.103.137 1.107-.822.101c-.858.106-1.532.231-2.021.376-.49.144-.83.331-1.02.56-.179.215-.247.496-.204.841.056.453.256.803.601 1.051.343.236.789.32 1.337.253a2.205 2.205 0 0 0 1.124-.447c.307-.255.534-.573.68-.954a2.47 2.47 0 0 0 .152-1.27l-.253-2.054c-.084-.679-.287-1.15-.61-1.412-.322-.263-.811-.354-1.466-.274a5.442 5.442 0 0 0-1.18.29 5.67 5.67 0 0 0-1.209.638c-.19.12-.36.171-.507.153a.573.573 0 0 1-.368-.19.916.916 0 0 1-.194-.394.99.99 0 0 1 .053-.459.756.756 0 0 1 .371-.372 6.898 6.898 0 0 1 1.488-.727c.499-.17.975-.283 1.427-.339.798-.098 1.469-.053 2.012.134.555.186.989.52 1.302 1.001.313.481.52 1.127.62 1.937l.566 4.591c.035.286-.008.521-.131.705-.124.173-.322.276-.596.309-.262.032-.48-.019-.654-.155-.176-.148-.281-.365-.316-.651l-.143-1.161.16-.019a2.688 2.688 0 0 1-.395 1.209c-.212.34-.498.617-.858.831-.361.213-.785.35-1.274.41ZM35.391 176.942c-.239.029-.438-.019-.599-.144-.16-.126-.257-.32-.289-.582l-.27-2.197c-.071-.572.185-.893.769-.965l.911-.112-1.026.507c.269-.468.47-.952.601-1.452.132-.5.202-1.059.21-1.676a14.324 14.324 0 0 0-.12-2.161l-.188-1.519c-.04-.322.013-.582.157-.781.157-.201.402-.321.736-.362l4.413-.542c.321-.04.582.019.783.176.2.156.32.396.36.717l.877 7.11-.943-.736 1.376-.169c.274-.034.49.012.651.137.173.124.277.329.312.615l.27 2.197c.068.548-.154.854-.666.916-.25.031-.45-.017-.598-.144-.149-.127-.24-.321-.272-.583l-.2-1.626-6.79.834.201 1.626c.068.547-.154.853-.666.916Zm1.38-4.105 4.127-.507-.725-5.877-3.163.388.186 1.501c.1.821.116 1.63.045 2.424-.072.795-.228 1.485-.47 2.071Zm13.032.014c-.88.108-1.666.017-2.355-.273a3.892 3.892 0 0 1-1.676-1.39c-.441-.635-.718-1.411-.831-2.328-.087-.703-.063-1.341.072-1.913a4.144 4.144 0 0 1 .683-1.517 3.668 3.668 0 0 1 1.246-1.078 4.82 4.82 0 0 1 1.747-.541c.87-.107 1.642-.014 2.32.278a3.85 3.85 0 0 1 1.694 1.387c.44.624.716 1.4.83 2.328.086.691.062 1.329-.072 1.914a3.982 3.982 0 0 1-.699 1.536 3.75 3.75 0 0 1-1.245 1.078c-.5.267-1.07.44-1.714.519Zm-.171-1.394c.488-.06.902-.231 1.242-.515.34-.283.582-.67.727-1.159.158-.491.194-1.076.11-1.755-.126-1.024-.447-1.77-.965-2.239-.517-.468-1.145-.657-1.883-.566-.5.061-.92.233-1.26.517-.342.272-.59.653-.748 1.144-.145.489-.176 1.073-.092 1.752.125 1.012.446 1.759.965 2.239.519.48 1.153.674 1.904.582Zm23.48 1.452c-.273.033-.491-.019-.653-.156-.161-.125-.257-.319-.29-.581l-.27-2.197-9.791 1.202c-.322.039-.582-.013-.781-.158-.19-.158-.303-.398-.343-.72l-1.328-10.772c-.038-.31.01-.552.146-.725.146-.188.368-.3.666-.336.298-.037.534.019.71.167.186.134.297.356.336.666l1.26 10.218 6.95-.853-1.26-10.219c-.039-.309.01-.551.146-.725.146-.187.368-.299.666-.336.298-.036.534.019.71.167.173.136.28.359.318.668l1.361 11.041-.923-.721 1.733-.213c.286-.035.51.016.672.153.172.124.277.335.313.633l.353 2.858c.069.56-.165.873-.7.939Zm3.303-3.489c-.322.04-.583-.013-.782-.158-.188-.158-.303-.398-.342-.719l-1.307-10.594c-.04-.322.014-.576.16-.763.157-.201.396-.321.717-.361l6.521-.8c.25-.031.45.011.596.126.146.103.234.274.263.512.03.25-.011.449-.126.596-.115.147-.297.236-.547.266l-5.735.705.486 3.948 5.342-.656c.262-.032.461.01.596.126.147.115.236.292.265.53.03.25-.011.448-.126.596-.104.133-.288.216-.55.248l-5.342.656.511 4.145 5.736-.704c.25-.031.448.011.595.126.148.115.236.292.265.53.031.25-.011.448-.126.596-.116.135-.3.218-.55.248l-6.52.801Zm10.464-1.158c-.298.037-.54-.018-.728-.164-.175-.148-.281-.371-.318-.669l-1.35-10.951c-.038-.309.01-.551.146-.725.146-.187.368-.299.666-.336.298-.036.534.019.71.167.186.135.298.357.336.666l.568 4.609 7.057-.866-.568-4.609c-.038-.31.01-.552.146-.726.147-.187.368-.299.666-.335.298-.037.535.019.71.167.174.135.28.358.318.668l1.35 10.951c.037.298-.012.539-.146.725-.134.186-.35.297-.648.334-.298.036-.54-.019-.727-.165-.176-.148-.282-.37-.319-.668l-.59-4.788-7.057.867.59 4.787c.037.298-.012.54-.146.726-.134.185-.356.297-.666.335Zm16.769-2.059c-.298.037-.54-.018-.728-.164-.175-.148-.281-.371-.318-.669l-1.26-10.218-3.787.465c-.25.031-.455-.011-.614-.124-.16-.126-.257-.313-.287-.563-.031-.251.017-.45.144-.598.126-.149.315-.239.565-.269l9.415-1.156c.262-.033.473.008.632.122.159.113.254.295.285.545.031.25-.017.455-.142.616-.127.148-.321.239-.583.271l-3.788.465 1.26 10.218c.037.298-.012.54-.146.726-.122.184-.338.295-.648.333Zm7.849-.964c-.298.037-.54-.018-.728-.164-.175-.148-.281-.371-.318-.668l-1.335-10.826c-.038-.31.017-.552.164-.728.147-.187.369-.299.666-.335l4.27-.525c1.358-.166 2.448.044 3.27.633.821.576 1.306 1.471 1.456 2.686.151 1.227-.101 2.225-.755 2.995-.657.757-1.664 1.219-3.021 1.386l-3.359.412.502 4.074c.037.297-.012.539-.146.725-.134.186-.356.297-.666.335Zm.127-6.616 3.091-.38c.893-.11 1.542-.389 1.946-.837.415-.462.573-1.086.476-1.872-.095-.774-.399-1.329-.912-1.665-.503-.35-1.201-.47-2.094-.36l-3.091.38.584 4.734Zm8.992 5.497c-.238.029-.436-.001-.592-.091a.621.621 0 0 1-.303-.398c-.046-.176-.035-.382.032-.62l3.503-11.457c.084-.3.208-.521.372-.662.175-.142.377-.227.603-.255.214-.027.418.009.611.106.206.096.385.279.54.55l6.181 10.268c.135.213.202.416.202.61a.65.65 0 0 1-.179.457c-.12.111-.298.181-.537.211-.262.032-.478-.008-.649-.12-.171-.112-.333-.298-.486-.557l-1.607-2.74.901.397-7.611.934.76-.601-.876 3.045c-.084.301-.189.525-.316.674-.128.137-.311.22-.549.249Zm3.848-11.299-1.909 6.726-.5-.373 6.307-.775-.358.479-3.504-6.062-.036.005Zm9.623 6.072c-.19.023-.347-.018-.468-.124-.11-.107-.191-.267-.241-.478l-1.349-7.415c-.068-.354-.026-.649.126-.886.152-.236.413-.377.782-.422.346-.043.621.032.826.225.205.192.312.469.32.831l.492 7.52c.015.216-.024.39-.117.522a.476.476 0 0 1-.371.227Zm.428 3.466c-.346.042-.639-.031-.88-.219s-.382-.448-.423-.782c-.041-.333.033-.615.223-.843.188-.241.454-.383.8-.425.345-.042.632.031.861.221.228.177.362.433.403.766.041.334-.026.62-.202.859-.176.24-.437.38-.782.423Z" fill="#313326"/><path d="M153.809 22.617 55.448 34.651l-2.194-21.268 98.348-12.02 2.207 21.254Z" fill="#B0CB1F"/><mask id="a" style="mask-type:luminance" maskUnits="userSpaceOnUse" x="54" y="2" width="99" height="32"><path d="M152.318 12.295c.558 5.156-3.125 9.835-8.273 10.512L65.468 33.132a9.419 9.419 0 0 1-10.613-8.338l-.117-1.094c-.554-5.153 3.13-9.83 8.275-10.505L141.59 2.88c5.263-.69 10.041 3.06 10.611 8.331l.117 1.084Z" fill="#fff" stroke="#fff"/></mask><g mask="url(#a)" stroke="#A0BB0F" stroke-width="1.39" stroke-miterlimit="10"><path d="M72.646 3.52 54.99 41.99M86.022 4.821 71.417 37.948M102.126 4 90.059 32.236m28.376-30.852-10.376 28.467M133.885.301l-10.35 29.03m26.57-31.432-10.604 30.305"/></g></svg>