<svg width="30" height="30" viewBox="0 0 30 30" fill="none" xmlns="http://www.w3.org/2000/svg">
<path d="M26.25 28.4375H3.75C3.2375 28.4375 2.8125 28.0125 2.8125 27.5C2.8125 26.9875 3.2375 26.5625 3.75 26.5625H26.25C26.7625 26.5625 27.1875 26.9875 27.1875 27.5C27.1875 28.0125 26.7625 28.4375 26.25 28.4375Z" fill="#B0CB1F"/>
<path d="M7 10.4751H5C4.3125 10.4751 3.75 11.0376 3.75 11.7251V22.5001C3.75 23.1876 4.3125 23.7501 5 23.7501H7C7.6875 23.7501 8.25 23.1876 8.25 22.5001V11.7251C8.25 11.0251 7.6875 10.4751 7 10.4751Z" fill="#B0CB1F"/>
<path d="M16 6.48755H14C13.3125 6.48755 12.75 7.05005 12.75 7.73755V22.5C12.75 23.1875 13.3125 23.75 14 23.75H16C16.6875 23.75 17.25 23.1875 17.25 22.5V7.73755C17.25 7.05005 16.6875 6.48755 16 6.48755Z" fill="#B0CB1F"/>
<path d="M25 2.5H23C22.3125 2.5 21.75 3.0625 21.75 3.75V22.5C21.75 23.1875 22.3125 23.75 23 23.75H25C25.6875 23.75 26.25 23.1875 26.25 22.5V3.75C26.25 3.0625 25.6875 2.5 25 2.5Z" fill="#B0CB1F"/>
</svg>
