<svg width="24" height="24" viewBox="0 0 24 24" fill="none" xmlns="http://www.w3.org/2000/svg">
<path d="M5.25 11.9037C11.5908 0.0858682 19.4862 -0.0504074 22.6414 1.35869C24.0505 4.51381 23.9142 12.4092 12.0963 18.75C11.9738 18.0455 11.2922 16.1999 9.54617 14.4539C7.80015 12.7078 5.95455 12.0263 5.25 11.9037Z" fill="#B0CB1F" stroke="#B0CB1F" stroke-width="1.5" stroke-linecap="round" stroke-linejoin="round"/>
<path d="M16.5494 23.25C16.231 21.3298 15.9856 19.3125 13.6875 18.1875L18.2838 14.8125C21.3627 19.6918 16.5494 23.25 16.5494 23.25Z" fill="#B0CB1F" stroke="#B0CB1F" stroke-width="1.5" stroke-linecap="round" stroke-linejoin="round"/>
<path d="M0.75 7.54685C2.67019 7.86521 4.68745 8.11057 5.81245 10.4087L9.18746 5.81244C4.30813 2.73355 0.75 7.54685 0.75 7.54685Z" fill="#B0CB1F" stroke="#B0CB1F" stroke-width="1.5" stroke-linecap="round" stroke-linejoin="round"/>
<path d="M4.5226 15.639C3.88281 16.2788 2.79516 18.1342 3.56291 20.4375C5.86617 21.2052 7.72157 20.1176 8.36136 19.4778" stroke="#B0CB1F" stroke-width="1.5" stroke-linecap="round" stroke-linejoin="round"/>
<path d="M18.626 7.5625C18.626 6.35438 17.6466 5.375 16.4385 5.375C15.2304 5.375 14.251 6.35438 14.251 7.5625C14.251 8.77062 15.2304 9.75 16.4385 9.75C17.6466 9.75 18.626 8.77062 18.626 7.5625Z" fill="#F2F5D5" stroke="#F2F5D5"/>
</svg>
