<svg width="112" height="78" fill="none" xmlns="http://www.w3.org/2000/svg"><g clip-path="url(#a)"><path d="M4.41 19.546C11.724 8.98 31.283.23 55.484-.023c21.985-.207 48.752 6.205 55.449 27.155 5.711 17.877-11.863 34.534-30.098 37.987a126.997 126.997 0 0 1-22.054 2.302c-3.378 6.262-11.306 10.107-17.284 10.51a17.307 17.307 0 0 0 3.982-10.901 115.439 115.439 0 0 1-16.9-2.832C-3.076 56.301-3.773 31.345 4.41 19.546Z" fill="#B0CB1F"/><path opacity=".4" d="M4.41 19.546C11.724 8.98 31.283.23 55.484-.023c21.985-.207 48.752 6.205 55.449 27.155 5.711 17.877-11.863 34.534-30.098 37.987a126.997 126.997 0 0 1-22.054 2.302c-3.378 6.262-11.306 10.107-17.284 10.51a17.307 17.307 0 0 0 3.982-10.901 115.439 115.439 0 0 1-16.9-2.832C-3.076 56.301-3.773 31.345 4.41 19.546Z" fill="#fff"/><path d="M86.754 27.04c1.3 0 2.57.382 3.65 1.098a6.528 6.528 0 0 1 2.42 2.924c.497 1.19.627 2.5.373 3.764a6.499 6.499 0 0 1-1.798 3.336 6.587 6.587 0 0 1-3.363 1.783 6.62 6.62 0 0 1-3.796-.37 6.558 6.558 0 0 1-2.949-2.4 6.477 6.477 0 0 1 .817-8.227 6.598 6.598 0 0 1 4.646-1.908Zm-30.748 0c1.3 0 2.57.382 3.65 1.098a6.528 6.528 0 0 1 2.42 2.924c.497 1.19.627 2.5.373 3.764a6.498 6.498 0 0 1-1.798 3.336 6.587 6.587 0 0 1-3.364 1.783 6.62 6.62 0 0 1-3.795-.37 6.558 6.558 0 0 1-2.949-2.4 6.477 6.477 0 0 1 .817-8.227 6.597 6.597 0 0 1 4.646-1.908Zm-30.748 0c1.3 0 2.57.382 3.65 1.098a6.528 6.528 0 0 1 2.42 2.924c.497 1.19.627 2.5.373 3.764a6.499 6.499 0 0 1-1.798 3.336 6.587 6.587 0 0 1-3.364 1.783 6.62 6.62 0 0 1-3.795-.37 6.558 6.558 0 0 1-2.949-2.4 6.476 6.476 0 0 1-.61-6.115 6.5 6.5 0 0 1 1.424-2.115 6.561 6.561 0 0 1 2.133-1.412 6.606 6.606 0 0 1 2.516-.493Z" fill="#fff"/></g><defs><clipPath id="a"><path fill="#fff" transform="matrix(-1 0 0 1 112 0)" d="M0 0h112v78H0z"/></clipPath></defs></svg>