<svg width="241" height="158" viewBox="0 0 241 158" fill="none" xmlns="http://www.w3.org/2000/svg">
<path d="M-83.9252 15.3157C-62.242 7.85445 -40.0949 0.314423 -17.16 0.00827401C5.775 -0.297875 30.0493 7.88069 43.5389 26.4158C51.6624 37.5859 55.3653 51.6513 64.3729 62.1304C74.5186 73.9303 90.0566 79.6246 105.262 82.9485C131.436 88.7304 167.563 88.8878 173.778 121.068C176.01 132.615 175.861 145.079 181.954 155.182C185.515 161.001 190.892 165.488 197.256 167.953C203.313 170.28 209.966 170.656 216.129 172.694C221.869 174.654 227.04 177.992 231.188 182.415C235.337 186.838 238.335 192.21 239.922 198.061C242.452 207.726 240.438 221.844 234.844 230.259C228.603 239.662 211.664 236.119 200.407 236.382C168.893 237.169 137.38 237.752 105.866 238.131C43.4951 238.945 -18.8757 239.093 -81.2465 238.953C-82.6355 213.738 -84.0244 188.518 -85.4134 163.291C-86.7965 138.178 -88.2058 112.881 -94.3948 88.503C-99.9447 66.7576 -96.7058 33.7984 -83.9252 15.3157Z" fill="#E8EBCB" fill-opacity="0.04"/>
</svg>
