<svg width="56" height="56" viewBox="0 0 56 56" fill="none" xmlns="http://www.w3.org/2000/svg">
<rect x="0.5" y="0.5" width="55" height="55" rx="27.5" fill="#B0CB1F"/>
<rect x="0.5" y="0.5" width="55" height="55" rx="27.5" stroke="#F2F5D5"/>
<path d="M24.8132 22.8132C25.2623 22.3641 25.2623 21.6359 24.8132 21.1868C24.3641 20.7377 23.6359 20.7377 23.1868 21.1868L17.1868 27.1868C16.7377 27.6359 16.7377 28.3641 17.1868 28.8132L23.1868 34.8132C23.6359 35.2623 24.3641 35.2623 24.8132 34.8132C25.2623 34.3641 25.2623 33.6359 24.8132 33.1868L20.7763 29.15H37.9892C38.6289 29.15 39.1502 28.6367 39.1502 28C39.1502 27.3633 38.6289 26.85 37.9892 26.85H20.7764L24.8132 22.8132Z" fill="white" stroke="white" stroke-width="0.3" stroke-linecap="round" stroke-linejoin="round"/>
</svg>
