<svg width="30" height="30" fill="none" xmlns="http://www.w3.org/2000/svg"><path d="M23.962 8.3c-.537-2.713-2.55-3.9-5.35-3.9H7.638c-3.3 0-5.5 1.65-5.5 5.5v6.437c0 2.775 1.138 4.4 3.013 5.1.275.1.575.188.887.238a7.31 7.31 0 0 0 1.6.162h10.988c3.3 0 5.5-1.65 5.5-5.5V9.9a7.04 7.04 0 0 0-.163-1.6ZM6.912 15a.944.944 0 0 1-.937.937.944.944 0 0 1-.938-.937v-3.75c0-.513.425-.938.938-.938.512 0 .937.425.937.938V15Zm6.213 1.425a3.297 3.297 0 0 1-3.3-3.3c0-1.825 1.475-3.3 3.3-3.3 1.825 0 3.3 1.475 3.3 3.3 0 1.825-1.475 3.3-3.3 3.3ZM21.2 15a.944.944 0 0 1-.938.937.944.944 0 0 1-.937-.937v-3.75c0-.513.425-.938.937-.938.513 0 .938.425.938.938V15Z" fill="#B0CB1F"/><path d="M27.875 13.65v6.438c0 3.85-2.2 5.512-5.512 5.512H11.386c-.937 0-1.775-.137-2.5-.412a4.215 4.215 0 0 1-1.512-.925c-.225-.213-.05-.55.262-.55h10.976c4.625 0 7.375-2.75 7.375-7.363V9.9c0-.3.337-.487.55-.262.85.9 1.337 2.212 1.337 4.012Z" fill="#B0CB1F"/></svg>