<svg width="30" height="30" fill="none" xmlns="http://www.w3.org/2000/svg"><path d="M26.25 28.438H3.75a.944.944 0 0 1-.938-.938c0-.512.425-.938.938-.938h22.5c.512 0 .938.425.938.938a.944.944 0 0 1-.938.938ZM7 10.475H5c-.688 0-1.25.563-1.25 1.25V22.5c0 .688.563 1.25 1.25 1.25h2c.688 0 1.25-.562 1.25-1.25V11.725c0-.7-.563-1.25-1.25-1.25Zm9-3.987h-2c-.688 0-1.25.562-1.25 1.25V22.5c0 .688.563 1.25 1.25 1.25h2c.688 0 1.25-.563 1.25-1.25V7.738c0-.688-.563-1.25-1.25-1.25ZM25 2.5h-2c-.688 0-1.25.563-1.25 1.25V22.5c0 .688.563 1.25 1.25 1.25h2c.688 0 1.25-.563 1.25-1.25V3.75c0-.688-.563-1.25-1.25-1.25Z" fill="#B0CB1F"/></svg>