<svg width="36" height="36" fill="none" xmlns="http://www.w3.org/2000/svg"><path d="m32.34 16.11-2.04-2.37c-.39-.45-.705-1.29-.705-1.89V9.3A2.906 2.906 0 0 0 26.7 6.405h-2.55c-.585 0-1.44-.315-1.89-.705l-2.37-2.04c-1.035-.885-2.73-.885-3.78 0l-2.355 2.055c-.45.375-1.305.69-1.89.69H9.27A2.906 2.906 0 0 0 6.375 9.3v2.565c0 .585-.315 1.425-.69 1.875L3.66 16.125c-.87 1.035-.87 2.715 0 3.75l2.025 2.385c.375.45.69 1.29.69 1.875V26.7a2.906 2.906 0 0 0 2.895 2.895h2.595c.585 0 1.44.315 1.89.705l2.37 2.04c1.035.885 2.73.885 3.78 0l2.37-2.04c.45-.39 1.29-.705 1.89-.705h2.55A2.906 2.906 0 0 0 29.61 26.7v-2.55c0-.585.315-1.44.705-1.89l2.04-2.37c.87-1.035.87-2.745-.015-3.78ZM25.02 18l-1.755 5.34c-.225.885-1.17 1.605-2.13 1.605H18.36c-.48 0-1.155-.165-1.455-.465L14.7 22.755c-.045.96-.48 1.365-1.545 1.365h-.72c-1.11 0-1.56-.435-1.56-1.485v-7.17c0-1.05.45-1.485 1.56-1.485h.735c1.11 0 1.56.435 1.56 1.485v.54l2.91-4.32c.3-.465 1.065-.795 1.71-.54.705.24 1.155 1.02 1.005 1.71l-.36 2.34c-.03.21.015.405.15.555.12.135.3.225.495.225h2.925c.57 0 1.05.225 1.335.63.255.39.3.885.12 1.395Z" fill="#B0CB1F"/></svg>