<svg width="30" height="30" fill="none" xmlns="http://www.w3.org/2000/svg"><path fill-rule="evenodd" clip-rule="evenodd" d="M0 15C0 6.302 6.302 0 15 0s15 6.302 15 15-6.302 15-15 15S0 23.698 0 15Zm12.188-4.688c0-.873 0-1.31.142-1.655.19-.459.556-.824 1.015-1.014C13.69 7.5 14.126 7.5 15 7.5s1.31 0 1.655.143c.46.19.825.555 1.015 1.014.142.345.142.782.142 1.655v1.786c0 .042 0 .063.014.076.013.014.034.014.076.014h1.785c.874 0 1.311 0 1.655.142.46.19.825.556 1.015 1.015.143.345.143.781.143 1.655s0 1.31-.143 1.655c-.19.46-.555.825-1.014 1.015-.345.142-.782.142-1.655.142h-1.785c-.043 0-.064 0-.077.014-.014.013-.014.034-.014.076v1.785c0 .874 0 1.311-.142 1.655-.19.46-.556.825-1.015 1.015-.345.143-.781.143-1.655.143s-1.31 0-1.655-.143a1.875 1.875 0 0 1-1.015-1.014c-.143-.345-.143-.782-.143-1.655v-1.785c0-.043 0-.064-.013-.077-.013-.014-.034-.014-.076-.014h-1.786c-.873 0-1.31 0-1.655-.142a1.875 1.875 0 0 1-1.014-1.015C7.5 16.31 7.5 15.874 7.5 15s0-1.31.143-1.655c.19-.46.555-.825 1.014-1.015.345-.143.782-.143 1.655-.143h1.786c.042 0 .063 0 .076-.013.014-.013.014-.034.014-.076v-1.786Z" fill="#B0CB1F"/></svg>