<svg width="24" height="24" fill="none" xmlns="http://www.w3.org/2000/svg"><path d="M5.25 11.904C11.59.086 19.486-.05 22.641 1.359c1.41 3.155 1.273 11.05-10.545 17.391-.122-.704-.804-2.55-2.55-4.296-1.746-1.746-3.591-2.428-4.296-2.55Z" fill="#B0CB1F" stroke="#B0CB1F" stroke-width="1.5" stroke-linecap="round" stroke-linejoin="round"/><path d="M16.55 23.25c-.319-1.92-.564-3.938-2.863-5.063l4.597-3.375c3.079 4.88-1.735 8.438-1.735 8.438ZM.75 7.547c1.92.318 3.937.564 5.062 2.862l3.375-4.597C4.308 2.734.75 7.547.75 7.547Z" fill="#B0CB1F" stroke="#B0CB1F" stroke-width="1.5" stroke-linecap="round" stroke-linejoin="round"/><path d="M4.523 15.639c-.64.64-1.728 2.495-.96 4.799 2.303.767 4.159-.32 4.798-.96" stroke="#B0CB1F" stroke-width="1.5" stroke-linecap="round" stroke-linejoin="round"/><path d="M18.626 7.563a2.188 2.188 0 1 0-4.375 0 2.188 2.188 0 0 0 4.375 0Z" fill="#F2F5D5" stroke="#F2F5D5"/></svg>