<svg width="80" height="80" fill="none" xmlns="http://www.w3.org/2000/svg"><g clip-path="url(#a)"><path fill-rule="evenodd" clip-rule="evenodd" d="M32.813.324c17.372-1.344 37.59.936 44.081 17.646 7.614 19.6.817 42.757-15.897 54.905C44.974 84.522 22.93 81.179 8.05 68.008-4.026 57.32-.392 38.883 5.232 23.512 9.866 10.844 19.748 1.334 32.813.324Z" fill="#EF7F1A"/><path d="M32.2 47.216c-1.968 0-3.472-.744-4.512-2.232-1.024-1.504-1.536-3.656-1.536-6.456 0-1.904.232-3.496.696-4.776.464-1.28 1.144-2.248 2.04-2.904.896-.656 2-.984 3.312-.984 1.984 0 3.488.736 4.512 2.208 1.024 1.456 1.536 3.6 1.536 6.432 0 1.872-.232 3.456-.696 4.752-.464 1.296-1.144 2.28-2.04 2.952-.896.672-2 1.008-3.312 1.008Zm0-2.064c1.232 0 2.136-.536 2.712-1.608.592-1.088.888-2.768.888-5.04 0-2.288-.296-3.952-.888-4.992-.576-1.056-1.48-1.584-2.712-1.584-1.216 0-2.12.528-2.712 1.584-.592 1.04-.888 2.704-.888 4.992 0 2.272.296 3.952.888 5.04.592 1.072 1.496 1.608 2.712 1.608Zm17.175 2.016c-.384 0-.688-.104-.912-.312-.224-.224-.336-.528-.336-.912v-2.376h-6.432c-.4 0-.72-.088-.96-.264-.24-.176-.36-.448-.36-.816 0-.208.048-.432.144-.672.112-.24.304-.552.576-.936l6.984-10.152c.176-.272.376-.472.6-.6a1.39 1.39 0 0 1 .768-.216c.336 0 .608.104.816.312.224.192.336.496.336.912V41.48h1.512c.384 0 .664.088.84.264.192.176.288.432.288.768 0 .352-.096.616-.288.792-.176.176-.456.264-.84.264h-1.512v2.376c0 .384-.112.688-.336.912-.208.208-.504.312-.888.312Zm-1.248-5.688v-8.472h.648l-6.264 9.144v-.672h5.616Z" fill="#fff"/></g><defs><clipPath id="a"><path fill="#fff" d="M0 0h80v80H0z"/></clipPath></defs></svg>