<svg width="56" height="56" fill="none" xmlns="http://www.w3.org/2000/svg"><rect x="-.5" y=".5" width="55" height="55" rx="27.5" transform="matrix(-1 0 0 1 55 0)" fill="#B0CB1F"/><rect x="-.5" y=".5" width="55" height="55" rx="27.5" transform="matrix(-1 0 0 1 55 0)" stroke="#F2F5D5"/><path d="M31.187 22.813a1.15 1.15 0 0 1 1.626-1.626l6 6c.45.449.45 1.177 0 1.626l-6 6a1.15 1.15 0 0 1-1.626-1.626l4.037-4.037H18.01c-.64 0-1.161-.513-1.161-1.15 0-.637.521-1.15 1.16-1.15h17.214l-4.037-4.037Z" fill="#fff" stroke="#fff" stroke-width=".3" stroke-linecap="round" stroke-linejoin="round"/></svg>