<svg width="80" height="80" fill="none" xmlns="http://www.w3.org/2000/svg"><g clip-path="url(#a)"><path fill-rule="evenodd" clip-rule="evenodd" d="M32.813.324c17.372-1.344 37.59.936 44.081 17.646 7.614 19.6.817 42.757-15.897 54.905C44.974 84.522 22.93 81.179 8.05 68.008-4.026 57.32-.392 38.883 5.232 23.512 9.866 10.844 19.748 1.334 32.813.324Z" fill="#EF7F1A"/><path d="M32.2 47.216c-1.968 0-3.472-.744-4.512-2.232-1.024-1.504-1.536-3.656-1.536-6.456 0-1.904.232-3.496.696-4.776.464-1.28 1.144-2.248 2.04-2.904.896-.656 2-.984 3.312-.984 1.984 0 3.488.736 4.512 2.208 1.024 1.456 1.536 3.6 1.536 6.432 0 1.872-.232 3.456-.696 4.752-.464 1.296-1.144 2.28-2.04 2.952-.896.672-2 1.008-3.312 1.008Zm0-2.064c1.232 0 2.136-.536 2.712-1.608.592-1.088.888-2.768.888-5.04 0-2.288-.296-3.952-.888-4.992-.576-1.056-1.48-1.584-2.712-1.584-1.216 0-2.12.528-2.712 1.584-.592 1.04-.888 2.704-.888 4.992 0 2.272.296 3.952.888 5.04.592 1.072 1.496 1.608 2.712 1.608Zm14.127 2.064a10.9 10.9 0 0 1-2.736-.36c-.928-.256-1.736-.632-2.424-1.128-.256-.16-.432-.352-.528-.576a1.153 1.153 0 0 1-.048-.648 1.07 1.07 0 0 1 .288-.528.936.936 0 0 1 .576-.24c.224-.032.472.032.744.192a8.57 8.57 0 0 0 2.016.912 7.838 7.838 0 0 0 2.04.264c.768 0 1.416-.112 1.944-.336.528-.224.92-.552 1.176-.984.272-.432.408-.952.408-1.56 0-.912-.304-1.592-.912-2.04-.592-.464-1.456-.696-2.592-.696h-1.632c-.368 0-.648-.088-.84-.264-.192-.192-.288-.456-.288-.792 0-.32.096-.568.288-.744.192-.192.472-.288.84-.288h1.392c.688 0 1.272-.112 1.752-.336a2.65 2.65 0 0 0 1.104-.984c.272-.432.408-.952.408-1.56 0-.816-.272-1.44-.816-1.872-.528-.448-1.304-.672-2.328-.672-.656 0-1.28.088-1.872.264-.576.176-1.176.488-1.8.936-.24.16-.472.232-.696.216a1.147 1.147 0 0 1-.552-.24 1.255 1.255 0 0 1-.312-.528 1.136 1.136 0 0 1 .048-.648c.08-.224.24-.416.48-.576a7.41 7.41 0 0 1 2.28-1.128 8.513 8.513 0 0 1 2.616-.408c1.12 0 2.08.176 2.88.528.816.352 1.432.856 1.848 1.512.432.656.648 1.44.648 2.352a4.45 4.45 0 0 1-.384 1.872 4.04 4.04 0 0 1-1.104 1.44c-.464.384-1.032.656-1.704.816v-.264c1.168.192 2.072.672 2.712 1.44.64.752.96 1.696.96 2.832 0 .992-.24 1.856-.72 2.592-.464.72-1.136 1.272-2.016 1.656-.88.384-1.928.576-3.144.576Z" fill="#fff"/></g><defs><clipPath id="a"><path fill="#fff" d="M0 0h80v80H0z"/></clipPath></defs></svg>