<svg width="173" height="523" fill="none" xmlns="http://www.w3.org/2000/svg"><path d="M124.469 521.964a146.147 146.147 0 0 1-62.729-20.089 146.279 146.279 0 0 1-47.56-45.6C5.448 442.703-1.1 426.821.597 410.785c3.47-32.657 37.452-51.739 67.286-65.36 29.834-13.621 63.822-32.686 67.337-65.325 3.734-34.716-30.07-63.922-30.65-98.753-.306-19.998 10.701-38.739 25.016-52.7a120.473 120.473 0 0 1 93.452-33.264c16.285 1.434 32.442-5.136 48.087-9.935 15.644-4.799 30.572-13.628 39.655-27.232 5.676-8.504 8.845-18.5 14.71-26.859C342.159 7.496 374.951 2.847 403.924.275c35.553 124.857 120.811 231.649 163.527 354.22-144.102 59.294-287.577 179.13-442.982 167.469Z" fill="#F3F1DF"/></svg>