<svg width="80" height="80" fill="none" xmlns="http://www.w3.org/2000/svg"><g clip-path="url(#a)"><path fill-rule="evenodd" clip-rule="evenodd" d="M32.813.324c17.372-1.344 37.59.936 44.081 17.646 7.614 19.6.817 42.757-15.897 54.905C44.974 84.522 22.93 81.179 8.05 68.008-4.026 57.32-.392 38.883 5.232 23.512 9.866 10.844 19.748 1.334 32.813.324Z" fill="#EF7F1A"/><path d="M32.2 47.216c-1.968 0-3.472-.744-4.512-2.232-1.024-1.504-1.536-3.656-1.536-6.456 0-1.904.232-3.496.696-4.776.464-1.28 1.144-2.248 2.04-2.904.896-.656 2-.984 3.312-.984 1.984 0 3.488.736 4.512 2.208 1.024 1.456 1.536 3.6 1.536 6.432 0 1.872-.232 3.456-.696 4.752-.464 1.296-1.144 2.28-2.04 2.952-.896.672-2 1.008-3.312 1.008Zm0-2.064c1.232 0 2.136-.536 2.712-1.608.592-1.088.888-2.768.888-5.04 0-2.288-.296-3.952-.888-4.992-.576-1.056-1.48-1.584-2.712-1.584-1.216 0-2.12.528-2.712 1.584-.592 1.04-.888 2.704-.888 4.992 0 2.272.296 3.952.888 5.04.592 1.072 1.496 1.608 2.712 1.608ZM42.535 47c-.432 0-.744-.096-.936-.288-.192-.208-.288-.488-.288-.84 0-.224.056-.44.168-.648.112-.208.272-.424.48-.648l5.112-5.472c.784-.832 1.344-1.592 1.68-2.28.352-.704.528-1.408.528-2.112 0-.896-.272-1.576-.816-2.04-.544-.464-1.344-.696-2.4-.696-.64 0-1.256.096-1.848.288-.592.192-1.184.504-1.776.936-.24.16-.464.232-.672.216a.91.91 0 0 1-.552-.24 1.07 1.07 0 0 1-.288-.528A1.28 1.28 0 0 1 40.95 32c.064-.224.216-.416.456-.576a7.456 7.456 0 0 1 2.28-1.152 8.742 8.742 0 0 1 2.64-.408c1.168 0 2.152.184 2.952.552.816.352 1.432.872 1.848 1.56.416.688.624 1.528.624 2.52 0 .672-.112 1.328-.336 1.968-.208.64-.536 1.296-.984 1.968-.432.656-1 1.352-1.704 2.088l-4.848 5.088v-.696h7.632c.352 0 .624.088.816.264.192.176.288.432.288.768s-.096.6-.288.792c-.192.176-.464.264-.816.264h-8.976Z" fill="#fff"/></g><defs><clipPath id="a"><path fill="#fff" d="M0 0h80v80H0z"/></clipPath></defs></svg>