<svg width="80" height="80" fill="none" xmlns="http://www.w3.org/2000/svg"><g clip-path="url(#a)"><path fill-rule="evenodd" clip-rule="evenodd" d="M32.813.324c17.372-1.344 37.59.936 44.081 17.646 7.614 19.6.817 42.757-15.897 54.905C44.974 84.522 22.93 81.179 8.05 68.008-4.026 57.32-.392 38.883 5.232 23.512 9.866 10.844 19.748 1.334 32.813.324Z" fill="#EF7F1A"/><path d="M32.2 47.216c-1.968 0-3.472-.744-4.512-2.232-1.024-1.504-1.536-3.656-1.536-6.456 0-1.904.232-3.496.696-4.776.464-1.28 1.144-2.248 2.04-2.904.896-.656 2-.984 3.312-.984 1.984 0 3.488.736 4.512 2.208 1.024 1.456 1.536 3.6 1.536 6.432 0 1.872-.232 3.456-.696 4.752-.464 1.296-1.144 2.28-2.04 2.952-.896.672-2 1.008-3.312 1.008Zm0-2.064c1.232 0 2.136-.536 2.712-1.608.592-1.088.888-2.768.888-5.04 0-2.288-.296-3.952-.888-4.992-.576-1.056-1.48-1.584-2.712-1.584-1.216 0-2.12.528-2.712 1.584-.592 1.04-.888 2.704-.888 4.992 0 2.272.296 3.952.888 5.04.592 1.072 1.496 1.608 2.712 1.608ZM43.11 47c-.335 0-.6-.096-.791-.288-.192-.192-.288-.448-.288-.768 0-.336.096-.592.288-.768.192-.176.456-.264.792-.264h2.928V32.144h1.248l-3.504 2.232c-.256.144-.496.2-.72.168a1.048 1.048 0 0 1-.552-.264 1.255 1.255 0 0 1-.312-.528 1.136 1.136 0 0 1 .048-.648 1.19 1.19 0 0 1 .504-.552l3.312-2.088c.272-.16.528-.288.768-.384.256-.112.496-.168.72-.168a.96.96 0 0 1 .672.24c.192.144.288.392.288.744v14.016h2.688c.352 0 .624.088.816.264.192.176.288.432.288.768s-.096.6-.288.792c-.192.176-.464.264-.816.264H43.11Z" fill="#fff"/></g><defs><clipPath id="a"><path fill="#fff" d="M0 0h80v80H0z"/></clipPath></defs></svg>