<svg width="62" height="61" fill="none" xmlns="http://www.w3.org/2000/svg"><path fill-rule="evenodd" clip-rule="evenodd" d="M33.28 1.121c8.985.002 10.563 2.084 16.922 8.877 6.295 6.726 11.057 15.003 10.294 24.465-.676 8.387-2.754 14.066-8.914 19.306-5.567 4.737-10.15 6.482-17.274 6.249-6.636-.217-12.917-1.314-18.582-5.024C8.01 49.942 2.944 43.726 1.286 34.232-.5 23.988.189 14.616 7.47 7.705c6.87-6.519 16.61-6.586 25.81-6.584Z" fill="#B1DAE7"/><path d="m33.35 20.28.112 6.475c.009.483-.521.733-.856.421l-1.829-1.735a.486.486 0 0 0-.699.012l-1.767 1.787c-.323.335-.862.092-.87-.38l-.113-6.474c-.005-.307.216-.552.504-.558l4.994-.087c.288-.005.518.233.523.54Z" fill="#fff"/><path d="M35.447 19.762c-.298-.04-.56.24-.555.558l.115 6.606c.015.834-.434 1.599-1.148 1.952a1.88 1.88 0 0 1-2.134-.347l-.909-.863a.486.486 0 0 0-.699.013l-.878.893a1.875 1.875 0 0 1-2.12.421c-.726-.327-1.201-1.076-1.216-1.91l-.115-6.606c-.006-.318-.278-.588-.575-.539-2.87.434-4.088 2.53-4.036 5.493l.191 10.973c.058 3.292 1.637 5.46 5.234 5.397l8.22-.144c3.597-.063 5.1-2.284 5.042-5.576l-.191-10.973c-.052-2.963-1.342-5.015-4.226-5.348Zm.854 18.304-8.734.152c-.421.008-.777-.36-.785-.81-.008-.449.335-.828.756-.836l8.735-.152c.421-.007.777.36.785.81.008.45-.335.829-.757.836Zm-.076-4.39-4.367.077c-.422.007-.777-.36-.785-.81-.008-.45.335-.829.756-.836l4.367-.076c.421-.008.777.36.785.81.008.45-.335.828-.756.836Z" fill="#fff"/></svg>