<svg width="63" height="62" fill="none" xmlns="http://www.w3.org/2000/svg"><path fill-rule="evenodd" clip-rule="evenodd" d="M25.187 2.058C38.173.613 53.386 1.764 58.682 13.91c6.211 14.246 1.712 31.492-10.503 40.883-11.711 9.004-28.32 7.117-39.812-2.201C-.959 45.031 1.29 31.347 5.11 19.871 8.258 10.413 15.42 3.144 25.187 2.058Z" fill="#CAD396"/><path fill-rule="evenodd" clip-rule="evenodd" d="M20.445 23.295a1.63 1.63 0 1 1 3.26-.114l.069 1.988-3.26.114-.069-1.988Zm.502 14.363-.38-10.876 3.26-.113.379 10.875a4 4 0 0 1-.589 2.233l-.518.843a.5.5 0 0 1-.833.03l-.576-.806a4 4 0 0 1-.743-2.186Zm6.134-11.224a5 5 0 0 1 4.822-5.17l5.215-.183a5 5 0 0 1 5.17 4.822l.338 9.661a5 5 0 0 1-4.822 5.172l-5.214.182a5 5 0 0 1-5.172-4.823l-.337-9.66Zm3.612.338a.75.75 0 0 1 .723-.776l6.518-.228a.75.75 0 1 1 .052 1.5l-6.518.227a.75.75 0 0 1-.775-.723Zm.875 3.592a.75.75 0 0 0 .053 1.499l6.518-.228a.75.75 0 0 0-.053-1.499l-6.517.228Zm-.57 5.143a.75.75 0 0 1 .723-.776l3.259-.114a.75.75 0 0 1 .052 1.5l-3.259.113a.75.75 0 0 1-.775-.723Z" fill="#fff"/></svg>