<svg width="62" height="62" fill="none" xmlns="http://www.w3.org/2000/svg"><path fill-rule="evenodd" clip-rule="evenodd" d="M23.254 1.566c14.776-.994 31.17 3.73 36.032 17.272 5.312 14.798-1.544 31.922-15.575 39.713-11.572 6.425-23.984-3.622-33.969-12.205C2.674 40.271-.653 31.464 1.994 22.692 5.142 12.258 12.044 2.32 23.254 1.566Z" fill="#EACE87"/><path d="M28.81 21.427c.941-1.836 3.566-1.79 4.443.077l1.514 3.228a2.479 2.479 0 0 0 1.841 1.396l3.503.574c2.027.333 2.794 2.858 1.299 4.274l-2.585 2.447a2.501 2.501 0 0 0-.75 2.193l.538 3.528c.311 2.042-1.84 3.557-3.64 2.564l-3.112-1.715a2.465 2.465 0 0 0-2.305-.04l-3.17 1.605c-1.834.93-3.93-.66-3.548-2.689l.661-3.507a2.501 2.501 0 0 0-.674-2.218l-2.497-2.536c-1.445-1.467-.59-3.964 1.447-4.226l3.52-.452a2.479 2.479 0 0 0 1.889-1.33l1.626-3.173Z" fill="#fff"/></svg>