<svg width="62" height="61" fill="none" xmlns="http://www.w3.org/2000/svg"><path fill-rule="evenodd" clip-rule="evenodd" d="M27.783 1.083c12.345-.05 28.044 13.852 31.902 25.012 3.665 10.6-4.797 20.02-13.893 27.083-10.158 7.887-24.83 9.589-35.456 2.32C.045 48.457-1.16 35.147 2.544 23.593c3.72-11.6 12.506-22.458 25.239-22.509Z" fill="#E5CCCC"/><path d="M28.331 39.272c.305.062.339.46.044.559l-1.803.6c-4.53 1.477-6.949.35-8.505-3.96l-1.544-4.29c-1.544-4.311-.368-6.627 4.163-8.105l.738-.247c.403-.135.796.27.68.678-.07.252-.138.517-.203.794l-1.045 4.597c-1.172 5.167.725 7.975 6.15 9.104l1.325.27Z" fill="#fff"/><path d="m33.163 20.886-1.924-.392c-3.847-.796-6.118-.046-7.414 2.62-.333.673-.594 1.486-.807 2.419l-1.045 4.597c-1.044 4.586.475 6.81 5.278 7.808l1.935.404c.669.14 1.29.228 1.864.262 3.586.265 5.463-1.363 6.357-5.323l1.045-4.586c1.045-4.586-.463-6.822-5.29-7.809ZM31.199 31.98a.852.852 0 0 1-.827.627c-.069 0-.138-.009-.219-.018l-3.352-.75a.816.816 0 0 1-.637-.984c.107-.439.573-.71 1.033-.608l3.353.75c.473.101.756.544.649.983Zm3.297-3.75a.852.852 0 0 1-.827.626c-.069 0-.138-.009-.218-.018l-5.588-1.247a.817.817 0 0 1-.637-.983c.107-.44.573-.71 1.034-.608l5.588 1.246c.472.09.755.533.648.983Z" fill="#fff"/></svg>