<svg width="63" height="62" fill="none" xmlns="http://www.w3.org/2000/svg"><path fill-rule="evenodd" clip-rule="evenodd" d="M35.896 1.685c11.218 1.214 19.587 10.743 22.912 20.73 3.614 10.859 4.53 25.283-5.019 32.36-11.38 8.437-28.153 7.434-39.688-.94C2.63 45.505-1.335 31.066 3.876 18.538c2.337-5.618 7.836-7.532 13.14-10.465C22.864 4.84 28.742.91 35.895 1.684Z" fill="#CAC6FA"/><path fill-rule="evenodd" clip-rule="evenodd" d="M25.472 22.047c.026-.754.709-1.342 1.524-1.313l14.18.495c.816.029 1.456.663 1.43 1.417l-.23 6.551c-.025.754-.708 1.342-1.524 1.314l-1.181-.042c-.49-.017-.9.336-.915.788-.016.452.368.833.857.85l1.182.041c1.795.063 3.296-1.23 3.354-2.889l.23-6.552c.057-1.658-1.35-3.053-3.145-3.116l-14.18-.495c-1.795-.063-3.297 1.231-3.355 2.89l-.057 1.637c-.016.453.368.833.858.85.49.017.899-.336.915-.788l.057-1.638Zm.066 6.562c-.042 1.206-1.134 2.147-2.44 2.101-1.304-.045-2.328-1.06-2.286-2.266.042-1.206 1.134-2.147 2.44-2.101 1.305.045 2.329 1.06 2.286 2.266Zm12.585-.21c.278-.371.177-.882-.227-1.141-.403-.26-.955-.168-1.233.203l-4.828 6.448a1.834 1.834 0 0 0-1.466.117l-3.897 1.722.02-.546c.063-1.81-1.473-3.331-3.431-3.4-1.958-.068-3.596 1.343-3.66 3.152l-.228 6.552 7.09.248.088-2.534c.313-.032.623-.123.914-.277l4.84-2.172c.582-.31.892-.889.85-1.471l5.168-6.901Zm-9.773-4.065c.015-.452.425-.805.915-.788l9.453.33c.49.017.873.398.857.85-.016.453-.425.805-.915.788l-9.453-.33c-.49-.017-.873-.397-.857-.85Zm.8 2.488c-.49-.017-.899.336-.915.788-.015.452.369.833.858.85l4.726.165c.49.017.9-.336.915-.788.016-.452-.368-.833-.857-.85l-4.727-.165Z" fill="#fff"/></svg>