<svg width="64" height="63" fill="none" xmlns="http://www.w3.org/2000/svg"><path fill-rule="evenodd" clip-rule="evenodd" d="M38.499 2.642c13.38 1.38 19.876 14.366 22.68 26.49 2.267 9.797-1.858 19.478-10.727 25.184-10.115 6.508-23.326 9.918-33.418 3.218C5.156 49.65-1.364 35.78 3.56 23.186 8.74 9.943 23.237 1.067 38.5 2.642Z" fill="#E4E19C"/><path d="m42.47 39.425-1.98.323c-.445.076-.805.363-.921.762l-.5 1.582c-.27.861-1.495 1.07-2.088.35l-3.351-3.94c-.269-.32-.09-.792.343-.867 2.125-.36 4.068-1.34 5.537-2.807a.628.628 0 0 1 .88-.008l2.508 2.56c.858.877.484 1.896-.428 2.045Zm-22.012-1.153 1.936.528c.434.121.762.445.836.854l.33 1.625c.18.885 1.377 1.221 2.042.567l3.744-3.568c.301-.29.172-.779-.25-.9-2.076-.578-3.906-1.757-5.214-3.369a.628.628 0 0 0-.875-.1l-2.761 2.284c-.945.782-.68 1.835.212 2.079ZM32.435 20.88c-4.592-.24-8.485 2.98-8.706 7.202a7.185 7.185 0 0 0 1.166 4.317c1.19 1.813 3.154 3.153 5.5 3.593.4.086.813.14 1.24.163a7.78 7.78 0 0 0 1.25-.033c2.379-.192 4.473-1.319 5.846-2.998a7.184 7.184 0 0 0 1.61-4.171c.222-4.223-3.313-7.832-7.906-8.073Zm3.244 7.588-1.033.854c-.174.144-.284.434-.236.655l.226 1.139c.179.895-.35 1.218-1.18.704l-1.152-.706a.898.898 0 0 0-.784-.041l-1.22.581c-.878.414-1.37.049-1.099-.823l.344-1.11c.058-.204-.009-.514-.167-.675l-.961-.959c-.554-.565-.336-1.09.477-1.167l1.28-.13a.863.863 0 0 0 .578-.353l.768-1.25c.416-.679 1.033-.647 1.376.072l.633 1.324c.085.18.325.367.55.412l1.259.262c.788.162.95.707.34 1.21Z" fill="#fff"/></svg>