<svg width="241" height="158" fill="none" xmlns="http://www.w3.org/2000/svg"><path d="M-83.925 15.316C-62.242 7.854-40.095.314-17.16.008 5.775-.298 30.05 7.881 43.539 26.416c8.123 11.17 11.826 25.235 20.834 35.714 10.146 11.8 25.684 17.495 40.889 20.818 26.174 5.782 62.301 5.94 68.516 38.12 2.232 11.547 2.083 24.011 8.176 34.114a31.114 31.114 0 0 0 15.302 12.771c6.057 2.327 12.71 2.703 18.873 4.741a37.066 37.066 0 0 1 23.793 25.367c2.53 9.665.516 23.783-5.078 32.198-6.241 9.403-23.18 5.86-34.437 6.123-31.514.787-63.027 1.37-94.541 1.749-62.37.814-124.742.962-187.113.822l-4.166-75.662c-1.383-25.113-2.793-50.41-8.982-74.788-5.55-21.745-2.31-54.705 10.47-73.187Z" fill="#E8EBCB" fill-opacity=".04"/></svg>