<svg width="42" height="42" fill="none" xmlns="http://www.w3.org/2000/svg"><path fill-rule="evenodd" clip-rule="evenodd" d="M24.97 40.72c-8.658.974-18.8.188-22.336-8.049-4.146-9.66-1.154-21.35 6.986-27.713 7.804-6.1 18.877-4.814 26.543 1.508 6.22 5.13 4.726 14.407 2.184 22.185-2.095 6.411-6.867 11.336-13.378 12.069Z" fill="#EF7F1A"/><path d="m10.331 21.07 12.508-5.046c1.235-.526 5.422-2.208 5.422-2.208s1.933-.736 1.772 1.051c-.054.736-.483 3.312-.913 6.097l-1.342 8.253s-.107 1.209-1.021 1.419c-.915.21-2.416-.736-2.684-.946-.215-.158-4.027-2.523-5.422-3.68-.376-.315-.806-.946.053-1.682a202.862 202.862 0 0 0 5.637-5.256c.644-.63 1.288-2.102-1.396-.315l-7.57 4.993s-.858.526-2.469.053c-1.61-.473-3.489-1.104-3.489-1.104s-1.288-.788.913-1.63h.001Z" fill="#fff"/></svg>