<svg width="43" height="43" fill="none" xmlns="http://www.w3.org/2000/svg"><path fill-rule="evenodd" clip-rule="evenodd" d="M16.988 40.786c-8.92-.928-13.243-9.727-15.106-17.945-1.505-6.64 1.25-13.206 7.167-17.08 6.748-4.417 15.557-6.737 22.282-2.2 7.914 5.338 12.253 14.737 8.963 23.277-3.46 8.981-13.132 15.007-23.306 13.948Z" fill="#EF7F1A"/><path d="M27.437 23.359c-.3-.1-1.6-.8-1.9-.9-.3-.1-.4-.1-.6.1a10.66 10.66 0 0 1-.9 1.1c-.2.2-.3.2-.6.1a5.44 5.44 0 0 1-2.2-1.4 6.2 6.2 0 0 1-1.5-1.9c-.2-.3 0-.4.1-.6.157-.147.292-.315.4-.5.1-.2.2-.3.3-.5.1-.2 0-.3 0-.5s-.6-1.5-.9-2c-.3-.5-.4-.5-.6-.5h-.5a1.08 1.08 0 0 0-.7.3 2.89 2.89 0 0 0-1 2.3 5.39 5.39 0 0 0 1.1 2.81 10.92 10.92 0 0 0 4.71 4.11c.7.3 1.2.4 1.6.6a3.42 3.42 0 0 0 1.7.1 3.46 3.46 0 0 0 1.9-1.3c.126-.422.194-.86.2-1.3a1.761 1.761 0 0 1-.6-.1l-.01-.02Zm-5 6.8a8.8 8.8 0 0 1-4.71-1.3l-.3-.2-3.51.9.91-3.4-.2-.3a9.33 9.33 0 0 1-1.4-4.91 9.22 9.22 0 1 1 9.21 9.21Zm7.81-16.92a11.43 11.43 0 0 0-7.81-3.2 11 11 0 0 0-11 11c0 1.937.517 3.84 1.5 5.51l-1.62 5.73 5.91-1.5a10.69 10.69 0 0 0 5.31 1.3 10.998 10.998 0 0 0 11-11 11.53 11.53 0 0 0-3.31-7.81" fill="#fff"/></svg>