<svg width="816" height="461" viewBox="0 0 816 461" fill="none" xmlns="http://www.w3.org/2000/svg">
<path d="M1017.47 41.5705C951.647 -12.9587 842.281 -13.9243 781.678 39.3701C760.787 57.7984 745.228 81.5062 720.916 96.0583C628.69 151.261 486.925 43.4788 392.041 95.0129C370.909 106.501 355.092 124.934 333.103 135.159C261.432 168.553 172.084 101.195 91.5911 112.647C33.8224 120.802 -8.41829 175.603 1.5918 229.096C235.89 322.569 477.557 397.698 723.872 453.635C749.056 459.354 776.812 464.643 799.077 454.002C815.688 446.096 825.979 430.727 835.258 415.868C904.097 305.793 977.456 164.049 1017.47 41.5705Z" fill="#FAF8EB"/>
</svg>
