<svg width="816" height="461" fill="none" xmlns="http://www.w3.org/2000/svg"><path d="M1017.47 41.57c-65.823-54.529-175.189-55.494-235.792-2.2-20.891 18.428-36.45 42.136-60.762 56.688-92.226 55.203-233.991-52.58-328.875-1.045-21.132 11.488-36.949 29.921-58.938 40.146-71.671 33.394-161.019-33.964-241.512-22.512-57.769 8.155-100.01 62.956-90 116.449 234.299 93.473 475.966 168.602 722.281 224.539 25.184 5.719 52.94 11.008 75.205.367 16.611-7.906 26.902-23.275 36.181-38.134C904.097 305.793 977.456 164.049 1017.47 41.57Z" fill="#FAF8EB"/></svg>